<svg id="svg" version="1.1" xmlns="http://www.w3.org/2000/svg" xmlns:xlink="http://www.w3.org/1999/xlink" width="400" height="108.9639115250291" viewBox="0, 0, 400,108.9639115250291"><g id="svgg"><path id="path0" d="M75.883 8.858 C 76.041 8.946,76.242 8.973,76.330 8.919 C 76.418 8.864,76.699 8.925,76.953 9.055 C 77.208 9.184,77.548 9.268,77.708 9.243 C 77.869 9.217,78.000 9.265,78.000 9.348 C 78.000 9.432,77.887 9.500,77.750 9.500 C 77.612 9.500,77.500 9.612,77.500 9.750 C 77.500 9.889,77.352 10.000,77.167 10.000 C 76.981 10.000,76.833 10.111,76.833 10.250 C 76.833 10.389,76.685 10.500,76.501 10.500 C 76.319 10.500,76.076 10.650,75.961 10.833 C 75.847 11.017,75.614 11.167,75.444 11.167 C 75.274 11.167,75.096 11.317,75.048 11.500 C 75.000 11.683,74.828 11.833,74.665 11.833 C 74.502 11.833,74.326 11.946,74.273 12.083 C 74.220 12.221,74.027 12.333,73.844 12.333 C 73.661 12.333,73.431 12.483,73.333 12.667 C 73.235 12.850,73.075 13.000,72.976 13.000 C 72.878 13.000,72.514 13.225,72.167 13.500 C 71.819 13.775,71.468 14.000,71.386 14.000 C 71.303 14.000,70.864 14.337,70.410 14.749 C 69.955 15.161,69.450 15.499,69.286 15.499 C 69.123 15.500,68.946 15.612,68.894 15.750 C 68.841 15.887,68.696 16.000,68.571 16.000 C 68.447 16.000,68.265 16.150,68.167 16.333 C 68.069 16.517,67.860 16.667,67.702 16.668 C 67.545 16.669,67.140 16.931,66.803 17.251 C 66.465 17.571,66.071 17.833,65.928 17.833 C 65.784 17.833,65.667 17.946,65.667 18.083 C 65.667 18.221,65.554 18.333,65.417 18.333 C 65.279 18.333,65.167 18.408,65.167 18.500 C 65.167 18.592,65.080 18.667,64.974 18.667 C 64.868 18.667,64.536 18.854,64.235 19.083 C 63.935 19.313,63.621 19.500,63.537 19.500 C 63.453 19.500,63.249 19.650,63.083 19.833 C 62.917 20.017,62.655 20.167,62.501 20.167 C 62.347 20.167,62.136 20.352,62.032 20.579 C 61.929 20.805,61.655 21.039,61.422 21.097 C 61.190 21.155,61.000 21.307,61.000 21.435 C 61.000 21.562,60.862 21.667,60.692 21.667 C 60.523 21.667,60.249 21.817,60.083 22.000 C 59.917 22.183,59.710 22.333,59.623 22.333 C 59.536 22.333,59.242 22.521,58.970 22.750 C 58.697 22.979,58.368 23.167,58.237 23.167 C 58.107 23.167,58.000 23.279,58.000 23.417 C 58.000 23.554,57.887 23.667,57.750 23.667 C 57.612 23.667,57.500 23.733,57.500 23.814 C 57.500 23.895,57.350 24.000,57.167 24.048 C 56.983 24.096,56.833 24.255,56.833 24.401 C 56.833 24.550,56.696 24.667,56.520 24.667 C 56.348 24.667,56.114 24.779,56.000 24.917 C 55.886 25.054,55.695 25.167,55.577 25.167 C 55.458 25.167,55.336 25.223,55.306 25.292 C 55.210 25.506,53.929 26.447,53.581 26.559 C 53.399 26.617,52.913 26.969,52.500 27.341 C 52.087 27.713,51.525 28.130,51.250 28.268 C 50.146 28.821,50.000 28.921,50.000 29.123 C 50.000 29.239,49.850 29.333,49.667 29.333 C 49.481 29.333,49.333 29.444,49.333 29.583 C 49.333 29.721,49.211 29.833,49.061 29.833 C 48.911 29.833,48.614 30.021,48.402 30.250 C 48.190 30.479,47.900 30.667,47.758 30.667 C 47.616 30.667,47.500 30.776,47.500 30.909 C 47.500 31.054,47.266 31.195,46.917 31.261 C 46.583 31.324,46.333 31.469,46.333 31.602 C 46.333 31.729,46.183 31.833,46.000 31.833 C 45.805 31.833,45.667 31.944,45.667 32.101 C 45.667 32.271,45.575 32.334,45.417 32.273 C 45.277 32.219,45.167 32.269,45.167 32.386 C 45.167 32.531,45.483 32.592,46.208 32.589 C 46.904 32.585,47.238 32.519,47.214 32.391 C 47.194 32.285,47.284 32.157,47.413 32.108 C 47.571 32.047,47.618 32.099,47.555 32.263 C 47.483 32.451,47.582 32.499,47.981 32.469 C 48.266 32.447,48.500 32.386,48.500 32.333 C 48.500 32.281,48.652 32.226,48.837 32.212 C 49.022 32.198,49.137 32.247,49.091 32.320 C 49.046 32.394,49.419 32.448,49.921 32.441 C 50.427 32.433,50.834 32.351,50.836 32.255 C 50.837 32.161,50.907 32.192,50.991 32.324 C 51.108 32.509,51.231 32.524,51.530 32.390 C 52.005 32.176,64.512 32.139,65.834 32.348 C 66.495 32.453,66.771 32.436,66.865 32.287 C 66.943 32.166,66.996 32.156,66.997 32.262 C 66.999 32.370,67.477 32.451,68.208 32.467 C 70.141 32.508,71.888 32.697,71.657 32.839 C 71.542 32.911,71.344 32.930,71.218 32.881 C 71.092 32.833,70.672 32.874,70.286 32.973 C 69.899 33.071,68.946 33.203,68.167 33.265 C 66.528 33.395,66.338 33.420,66.000 33.550 C 65.862 33.602,64.870 33.727,63.795 33.826 C 62.720 33.925,61.670 34.070,61.462 34.149 C 61.254 34.228,60.521 34.348,59.833 34.415 C 59.146 34.483,58.468 34.598,58.328 34.672 C 58.061 34.812,56.768 35.047,56.333 35.035 C 56.196 35.031,55.971 35.068,55.833 35.117 C 55.696 35.166,55.396 35.233,55.167 35.265 C 53.268 35.533,52.167 35.754,52.167 35.866 C 52.167 35.940,51.960 36.003,51.708 36.006 C 51.456 36.009,50.819 36.115,50.292 36.241 C 49.765 36.367,49.333 36.430,49.333 36.381 C 49.333 36.332,49.240 36.369,49.125 36.464 C 49.010 36.558,48.467 36.689,47.917 36.756 C 47.367 36.824,46.877 36.939,46.829 37.014 C 46.781 37.088,46.331 37.195,45.829 37.252 C 45.327 37.308,44.709 37.457,44.456 37.582 C 44.202 37.708,44.038 37.740,44.091 37.654 C 44.151 37.557,44.042 37.556,43.802 37.652 C 42.951 37.993,42.738 38.050,42.448 38.013 C 42.283 37.993,42.055 38.052,41.943 38.145 C 41.831 38.238,41.529 38.352,41.272 38.398 C 41.015 38.445,40.684 38.581,40.537 38.700 C 40.311 38.883,40.292 38.878,40.417 38.667 C 40.543 38.452,40.525 38.448,40.284 38.644 C 40.130 38.768,39.891 38.827,39.752 38.774 C 39.613 38.721,39.500 38.750,39.500 38.839 C 39.500 38.927,39.292 39.000,39.037 39.000 C 38.782 39.000,38.395 39.125,38.176 39.279 C 37.957 39.432,37.832 39.470,37.899 39.362 C 37.965 39.255,37.946 39.167,37.857 39.167 C 37.768 39.167,37.667 39.248,37.634 39.347 C 37.601 39.447,37.314 39.559,36.995 39.597 C 36.677 39.634,36.323 39.678,36.208 39.694 C 36.094 39.709,36.000 39.789,36.000 39.871 C 36.000 39.953,35.925 39.973,35.833 39.917 C 35.742 39.860,35.666 39.912,35.664 40.032 C 35.662 40.190,35.617 40.182,35.500 40.000 C 35.347 39.764,35.321 39.781,35.271 40.153 C 35.238 40.394,35.000 40.577,35.000 40.361 C 35.000 40.254,34.925 40.167,34.833 40.167 C 34.742 40.167,34.667 40.288,34.667 40.437 C 34.667 40.661,34.623 40.671,34.411 40.495 C 34.115 40.249,33.473 40.507,32.944 41.083 C 32.685 41.366,32.653 41.372,32.731 41.125 C 32.830 40.812,32.568 40.743,32.191 40.982 C 32.033 41.082,32.020 41.160,32.149 41.239 C 32.385 41.385,32.388 41.667,32.153 41.667 C 32.054 41.667,31.652 41.929,31.261 42.250 C 30.869 42.571,30.431 42.833,30.286 42.833 C 30.141 42.833,29.975 42.983,29.917 43.167 C 29.858 43.350,29.715 43.500,29.598 43.500 C 29.481 43.500,29.249 43.650,29.083 43.833 C 28.917 44.017,28.643 44.167,28.474 44.167 C 28.305 44.167,28.167 44.279,28.167 44.417 C 28.167 44.554,28.084 44.667,27.982 44.667 C 27.881 44.667,27.579 44.851,27.311 45.076 C 26.875 45.443,26.207 45.507,26.420 45.161 C 26.467 45.085,26.434 44.979,26.347 44.925 C 26.259 44.871,26.195 45.054,26.203 45.336 C 26.211 45.616,26.293 45.892,26.385 45.948 C 26.486 46.011,26.499 45.966,26.417 45.833 C 26.327 45.688,26.347 45.655,26.477 45.736 C 26.717 45.884,26.540 46.218,26.275 46.116 C 26.148 46.068,26.078 46.317,26.069 46.855 C 26.057 47.487,26.113 47.670,26.319 47.680 C 26.491 47.688,26.510 47.722,26.375 47.777 C 26.134 47.874,26.091 48.333,26.322 48.333 C 26.408 48.333,26.502 48.540,26.531 48.792 C 26.562 49.065,26.672 49.232,26.804 49.204 C 26.925 49.179,26.981 49.229,26.928 49.316 C 26.874 49.402,26.940 49.583,27.074 49.717 C 27.208 49.851,27.276 50.002,27.226 50.052 C 27.175 50.102,27.292 50.242,27.484 50.362 C 27.676 50.482,27.833 50.678,27.833 50.797 C 27.833 50.916,27.983 51.175,28.167 51.372 C 28.350 51.569,28.500 51.832,28.500 51.958 C 28.500 52.084,28.566 52.145,28.647 52.095 C 28.728 52.045,28.887 52.228,29.001 52.502 C 29.114 52.776,29.272 53.000,29.350 53.000 C 29.429 53.000,29.539 53.182,29.595 53.405 C 29.651 53.627,29.802 53.850,29.932 53.899 C 30.061 53.949,30.167 54.070,30.167 54.168 C 30.167 54.267,30.243 54.438,30.335 54.549 C 30.607 54.873,31.396 55.931,31.667 56.335 C 31.804 56.540,32.023 56.818,32.152 56.952 C 32.281 57.087,32.581 57.481,32.819 57.828 C 33.056 58.176,33.418 58.675,33.624 58.938 C 33.830 59.201,34.222 59.717,34.497 60.083 C 35.221 61.051,35.170 60.985,36.176 62.251 C 38.509 65.190,39.770 66.758,40.000 67.009 C 40.242 67.274,41.402 68.638,42.083 69.460 C 42.267 69.681,42.679 70.156,43.000 70.516 C 43.321 70.875,43.826 71.450,44.122 71.793 C 46.161 74.150,46.279 74.280,49.138 77.314 C 53.061 81.477,58.445 86.704,58.914 86.804 C 59.289 86.884,59.145 85.617,58.662 84.583 C 58.576 84.400,58.432 83.950,58.342 83.583 C 57.989 82.144,57.644 80.901,57.508 80.583 C 57.366 80.250,56.943 78.585,56.640 77.167 C 56.553 76.754,56.414 76.267,56.334 76.083 C 56.189 75.755,55.820 74.126,55.484 72.333 C 55.389 71.829,55.244 71.267,55.162 71.083 C 55.079 70.900,54.893 70.112,54.748 69.333 C 54.288 66.847,54.064 65.757,53.963 65.500 C 53.869 65.265,53.549 63.376,53.110 60.471 C 53.004 59.768,52.860 59.137,52.792 59.068 C 52.517 58.796,52.662 57.970,53.000 57.882 C 53.183 57.834,53.333 57.735,53.333 57.662 C 53.333 57.589,53.633 57.479,54.000 57.417 C 54.367 57.355,54.667 57.244,54.667 57.171 C 54.667 57.097,54.948 56.984,55.292 56.920 C 55.635 56.856,56.231 56.660,56.616 56.485 C 57.000 56.310,57.413 56.166,57.533 56.166 C 57.652 56.165,57.951 56.060,58.197 55.931 C 58.443 55.803,58.893 55.645,59.197 55.580 C 59.501 55.515,59.825 55.406,59.917 55.338 C 60.008 55.270,60.457 55.123,60.914 55.012 C 61.372 54.900,61.822 54.748,61.914 54.674 C 62.007 54.599,62.343 54.483,62.661 54.415 C 62.979 54.347,63.354 54.231,63.495 54.158 C 63.635 54.084,64.425 53.827,65.250 53.586 C 66.075 53.345,66.867 53.085,67.010 53.009 C 67.153 52.933,67.715 52.779,68.260 52.667 C 68.804 52.555,69.325 52.406,69.417 52.335 C 69.508 52.263,69.846 52.155,70.167 52.093 C 70.487 52.031,70.900 51.912,71.083 51.828 C 71.267 51.744,71.867 51.567,72.417 51.434 C 74.158 51.012,74.907 50.809,75.250 50.665 C 75.563 50.533,76.964 50.189,78.667 49.826 C 79.079 49.738,79.529 49.615,79.667 49.553 C 79.804 49.490,80.554 49.307,81.333 49.146 C 83.353 48.726,84.711 48.410,85.000 48.292 C 85.137 48.236,85.925 48.100,86.750 47.992 C 87.575 47.883,88.325 47.737,88.417 47.669 C 88.508 47.600,89.061 47.491,89.644 47.428 C 90.904 47.291,92.258 46.728,92.931 46.061 C 93.476 45.521,94.333 44.264,94.333 44.004 C 94.333 43.910,94.390 43.833,94.458 43.833 C 94.527 43.833,94.802 43.439,95.070 42.958 C 95.338 42.477,95.609 42.046,95.673 42.000 C 95.736 41.954,96.042 41.479,96.352 40.944 C 96.663 40.409,97.047 39.771,97.207 39.527 C 97.366 39.283,97.589 38.896,97.703 38.667 C 97.817 38.438,97.949 38.212,97.997 38.167 C 98.100 38.067,98.017 38.207,100.280 34.333 C 101.271 32.637,102.064 31.194,102.041 31.125 C 102.018 31.056,102.066 31.000,102.147 31.000 C 102.228 31.000,102.340 30.869,102.397 30.708 C 102.453 30.548,102.682 30.117,102.905 29.750 C 103.128 29.383,103.425 28.858,103.566 28.583 C 103.706 28.308,104.116 27.558,104.475 26.917 C 104.835 26.275,105.343 25.337,105.605 24.833 C 105.866 24.329,106.126 23.879,106.182 23.833 C 106.239 23.787,106.377 23.469,106.489 23.125 C 106.601 22.781,106.743 22.500,106.805 22.500 C 106.866 22.500,107.142 22.013,107.417 21.419 C 107.692 20.824,107.973 20.337,108.042 20.336 C 108.110 20.334,108.167 20.238,108.167 20.123 C 108.167 20.007,108.335 19.613,108.540 19.248 C 110.078 16.512,107.982 12.991,104.569 12.578 C 104.027 12.513,103.508 12.400,103.417 12.329 C 103.243 12.193,100.687 11.807,100.050 11.820 C 99.848 11.825,99.641 11.760,99.590 11.677 C 99.538 11.594,98.991 11.477,98.373 11.418 C 97.755 11.358,97.138 11.266,97.000 11.213 C 96.571 11.047,96.301 11.005,94.417 10.813 C 93.408 10.710,92.546 10.568,92.500 10.498 C 92.454 10.427,91.667 10.315,90.750 10.248 C 89.833 10.182,89.008 10.069,88.917 9.997 C 88.825 9.925,88.368 9.871,87.900 9.876 C 87.433 9.880,86.978 9.840,86.890 9.785 C 86.802 9.731,85.778 9.633,84.615 9.569 C 83.452 9.504,82.500 9.403,82.500 9.344 C 82.500 9.286,82.350 9.226,82.167 9.212 C 81.983 9.199,81.833 9.256,81.833 9.340 C 81.833 9.431,81.675 9.431,81.434 9.340 C 81.214 9.256,80.999 9.223,80.957 9.265 C 80.914 9.308,80.673 9.264,80.420 9.168 C 80.088 9.042,79.895 9.046,79.730 9.183 C 79.554 9.330,79.499 9.321,79.495 9.145 C 79.491 8.992,79.408 9.024,79.245 9.240 C 79.097 9.435,79.000 9.477,79.000 9.346 C 79.000 9.204,78.856 9.155,78.589 9.206 C 78.363 9.250,78.157 9.220,78.130 9.140 C 78.079 8.988,77.382 8.844,76.257 8.752 C 75.767 8.712,75.671 8.739,75.883 8.858 M44.052 32.277 C 44.116 32.384,44.075 32.503,43.959 32.541 C 43.844 32.580,44.030 32.611,44.372 32.611 C 44.896 32.611,44.963 32.573,44.795 32.371 C 44.658 32.205,44.576 32.190,44.532 32.322 C 44.485 32.462,44.395 32.455,44.202 32.299 C 44.037 32.165,43.980 32.157,44.052 32.277 M46.404 32.313 C 46.453 32.393,46.300 32.458,46.063 32.458 C 45.758 32.458,45.697 32.416,45.857 32.315 C 46.147 32.131,46.291 32.131,46.404 32.313 M34.143 40.852 C 33.783 41.079,33.607 41.023,33.832 40.752 C 33.945 40.615,34.112 40.550,34.203 40.606 C 34.304 40.668,34.280 40.765,34.143 40.852 M31.277 41.284 C 31.016 41.421,30.641 41.557,30.443 41.588 C 29.618 41.714,28.739 42.136,29.048 42.257 C 29.235 42.330,29.469 42.263,29.675 42.076 C 29.857 41.911,30.135 41.766,30.294 41.752 C 30.813 41.708,31.833 41.311,31.833 41.154 C 31.833 41.069,31.815 41.008,31.792 41.018 C 31.769 41.027,31.537 41.147,31.277 41.284 M27.781 42.842 C 27.461 43.216,27.626 43.272,28.077 42.942 C 28.248 42.817,28.312 42.673,28.222 42.617 C 28.132 42.562,27.934 42.663,27.781 42.842 " stroke="none" fill="#1bc49c" fill-rule="evenodd"></path><path id="path1" d="M48.000 8.380 C 47.954 8.422,46.567 8.512,44.917 8.581 C 40.973 8.746,40.793 8.758,40.500 8.874 C 40.362 8.928,39.237 9.023,38.000 9.085 C 36.762 9.147,35.656 9.203,35.542 9.210 C 35.427 9.217,35.333 9.285,35.333 9.361 C 35.333 9.438,34.790 9.505,34.125 9.511 C 33.460 9.517,31.979 9.632,30.833 9.766 C 29.688 9.900,28.075 10.083,27.250 10.173 C 25.715 10.340,24.917 10.452,24.917 10.499 C 24.917 10.514,24.692 10.546,24.417 10.570 C 22.758 10.718,20.716 11.060,20.510 11.225 C 20.316 11.379,20.298 11.368,20.417 11.167 C 20.535 10.965,20.517 10.954,20.324 11.109 C 20.191 11.214,19.558 11.355,18.917 11.421 C 18.275 11.487,17.600 11.575,17.417 11.616 C 17.233 11.657,16.933 11.713,16.750 11.741 C 16.567 11.768,16.398 11.810,16.375 11.833 C 16.282 11.927,14.000 12.249,13.792 12.198 C 13.723 12.181,13.667 12.242,13.667 12.333 C 13.667 12.425,13.415 12.500,13.108 12.500 C 12.540 12.500,11.560 12.781,11.253 13.031 C 10.064 14.002,9.673 14.425,9.581 14.845 C 9.521 15.115,9.406 15.295,9.325 15.245 C 9.074 15.090,8.964 15.919,9.025 17.501 C 9.058 18.367,9.163 19.063,9.269 19.131 C 9.371 19.197,9.512 19.438,9.581 19.667 C 9.650 19.896,9.797 20.196,9.908 20.333 C 10.020 20.471,10.282 20.996,10.490 21.500 C 10.699 22.004,11.286 23.204,11.795 24.167 C 13.368 27.145,13.828 28.076,13.831 28.292 C 13.832 28.406,13.894 28.500,13.969 28.500 C 14.043 28.500,14.207 28.762,14.333 29.083 C 14.459 29.404,14.623 29.667,14.698 29.667 C 14.772 29.667,14.833 29.774,14.833 29.905 C 14.833 30.036,14.930 30.242,15.049 30.363 C 15.167 30.484,15.364 30.827,15.486 31.125 C 15.607 31.423,15.767 31.667,15.840 31.667 C 15.914 31.667,16.023 31.892,16.083 32.167 C 16.144 32.442,16.262 32.667,16.347 32.667 C 16.431 32.667,16.500 32.770,16.500 32.896 C 16.500 33.023,16.612 33.219,16.748 33.332 C 16.885 33.445,16.968 33.586,16.934 33.644 C 16.900 33.702,17.055 33.900,17.278 34.083 C 17.501 34.267,17.837 34.544,18.025 34.700 C 18.983 35.497,20.517 35.638,23.250 35.183 C 23.892 35.076,24.546 34.968,24.704 34.944 C 24.861 34.919,25.032 34.857,25.083 34.806 C 25.134 34.755,25.444 34.743,25.772 34.779 C 26.100 34.815,26.454 34.776,26.559 34.691 C 26.749 34.539,28.452 34.237,28.726 34.308 C 28.804 34.328,28.987 34.249,29.133 34.131 C 29.309 33.988,29.358 33.983,29.278 34.115 C 29.201 34.244,29.277 34.304,29.496 34.288 C 29.682 34.274,29.833 34.214,29.833 34.156 C 29.833 34.041,32.113 33.779,32.881 33.805 C 33.136 33.814,33.306 33.758,33.259 33.681 C 33.211 33.604,33.602 33.572,34.128 33.609 C 34.811 33.658,35.012 33.630,34.833 33.508 C 34.616 33.361,34.620 33.338,34.861 33.336 C 35.014 33.334,35.170 33.427,35.209 33.542 C 35.264 33.706,35.331 33.707,35.526 33.546 C 35.662 33.434,36.346 33.315,37.045 33.282 C 37.809 33.245,38.433 33.127,38.607 32.985 C 38.794 32.834,38.853 32.824,38.772 32.958 C 38.688 33.098,38.760 33.167,38.990 33.167 C 39.179 33.167,39.333 33.087,39.333 32.990 C 39.333 32.893,39.425 32.871,39.539 32.941 C 39.829 33.120,40.331 33.138,40.434 32.973 C 40.481 32.896,40.815 32.833,41.177 32.833 C 41.589 32.833,41.834 32.756,41.836 32.625 C 41.837 32.494,41.884 32.479,41.961 32.585 C 42.114 32.797,43.000 32.851,43.000 32.649 C 43.000 32.567,43.079 32.500,43.177 32.500 C 43.274 32.500,43.297 32.594,43.228 32.708 C 43.155 32.830,43.234 32.812,43.417 32.667 C 43.600 32.521,43.678 32.504,43.605 32.625 C 43.537 32.740,43.560 32.833,43.657 32.833 C 43.754 32.833,43.833 32.757,43.833 32.663 C 43.833 32.570,44.016 32.527,44.240 32.567 C 44.564 32.626,44.626 32.585,44.545 32.362 C 44.459 32.125,44.498 32.131,44.805 32.401 C 45.119 32.677,45.167 32.683,45.167 32.448 C 45.167 32.269,45.257 32.212,45.431 32.278 C 45.641 32.359,45.650 32.407,45.474 32.516 C 45.339 32.599,45.448 32.627,45.752 32.588 C 46.026 32.552,46.311 32.518,46.385 32.511 C 46.459 32.505,46.471 32.422,46.412 32.327 C 46.354 32.231,46.162 32.199,45.986 32.254 C 45.764 32.325,45.667 32.276,45.667 32.095 C 45.667 31.944,45.808 31.833,46.000 31.833 C 46.183 31.833,46.333 31.729,46.333 31.602 C 46.333 31.469,46.583 31.324,46.917 31.261 C 47.266 31.195,47.500 31.054,47.500 30.909 C 47.500 30.776,47.616 30.667,47.758 30.667 C 47.900 30.667,48.190 30.479,48.402 30.250 C 48.614 30.021,48.911 29.833,49.061 29.833 C 49.211 29.833,49.333 29.721,49.333 29.583 C 49.333 29.444,49.481 29.333,49.667 29.333 C 49.850 29.333,50.000 29.239,50.000 29.123 C 50.000 28.921,50.146 28.821,51.250 28.268 C 51.525 28.130,52.087 27.713,52.500 27.341 C 52.913 26.969,53.399 26.617,53.581 26.559 C 53.929 26.447,55.210 25.506,55.306 25.292 C 55.336 25.223,55.458 25.167,55.577 25.167 C 55.695 25.167,55.886 25.054,56.000 24.917 C 56.114 24.779,56.348 24.667,56.520 24.667 C 56.696 24.667,56.833 24.550,56.833 24.401 C 56.833 24.255,56.983 24.096,57.167 24.048 C 57.350 24.000,57.500 23.895,57.500 23.814 C 57.500 23.733,57.612 23.667,57.750 23.667 C 57.887 23.667,58.000 23.554,58.000 23.417 C 58.000 23.279,58.107 23.167,58.237 23.167 C 58.368 23.167,58.697 22.979,58.970 22.750 C 59.242 22.521,59.536 22.333,59.623 22.333 C 59.710 22.333,59.917 22.183,60.083 22.000 C 60.249 21.817,60.523 21.667,60.692 21.667 C 60.862 21.667,61.000 21.562,61.000 21.435 C 61.000 21.307,61.190 21.155,61.422 21.097 C 61.655 21.039,61.929 20.805,62.032 20.579 C 62.136 20.352,62.347 20.167,62.501 20.167 C 62.655 20.167,62.917 20.017,63.083 19.833 C 63.249 19.650,63.453 19.500,63.537 19.500 C 63.621 19.500,63.935 19.313,64.235 19.083 C 64.536 18.854,64.868 18.667,64.974 18.667 C 65.080 18.667,65.167 18.592,65.167 18.500 C 65.167 18.408,65.279 18.333,65.417 18.333 C 65.554 18.333,65.667 18.221,65.667 18.083 C 65.667 17.946,65.784 17.833,65.928 17.833 C 66.071 17.833,66.465 17.571,66.803 17.251 C 67.140 16.931,67.545 16.669,67.702 16.668 C 67.860 16.667,68.069 16.517,68.167 16.333 C 68.265 16.150,68.447 16.000,68.571 16.000 C 68.696 16.000,68.841 15.887,68.894 15.750 C 68.946 15.612,69.123 15.500,69.286 15.499 C 69.450 15.499,69.955 15.161,70.410 14.749 C 70.864 14.337,71.303 14.000,71.386 14.000 C 71.468 14.000,71.819 13.775,72.167 13.500 C 72.514 13.225,72.878 13.000,72.976 13.000 C 73.075 13.000,73.235 12.850,73.333 12.667 C 73.431 12.483,73.661 12.333,73.844 12.333 C 74.027 12.333,74.220 12.221,74.273 12.083 C 74.326 11.946,74.502 11.833,74.665 11.833 C 74.828 11.833,75.000 11.683,75.048 11.500 C 75.096 11.317,75.274 11.167,75.444 11.167 C 75.614 11.167,75.847 11.017,75.961 10.833 C 76.076 10.650,76.319 10.500,76.501 10.500 C 76.685 10.500,76.833 10.389,76.833 10.250 C 76.833 10.111,76.981 10.000,77.167 10.000 C 77.352 10.000,77.500 9.889,77.500 9.750 C 77.500 9.612,77.612 9.500,77.750 9.500 C 77.887 9.500,78.000 9.432,78.000 9.348 C 78.000 9.265,77.869 9.217,77.708 9.243 C 77.548 9.268,77.138 9.149,76.798 8.978 C 76.121 8.637,75.771 8.567,76.167 8.852 C 76.367 8.996,76.351 9.008,76.083 8.911 C 75.337 8.641,74.946 8.612,75.084 8.835 C 75.181 8.992,75.154 9.011,74.984 8.905 C 74.564 8.643,74.131 8.590,73.537 8.728 C 73.329 8.776,73.196 8.755,73.242 8.680 C 73.362 8.486,48.214 8.187,48.000 8.380 M78.167 9.151 C 78.167 9.234,78.324 9.261,78.517 9.210 C 78.710 9.160,78.924 9.211,78.994 9.323 C 79.088 9.475,79.146 9.460,79.222 9.264 C 79.302 9.054,79.204 9.000,78.745 9.000 C 78.427 9.000,78.167 9.068,78.167 9.151 M47.417 32.128 C 47.163 32.314,47.139 32.667,47.381 32.667 C 47.499 32.667,47.595 32.517,47.595 32.333 C 47.595 32.150,47.593 32.001,47.589 32.003 C 47.586 32.004,47.508 32.060,47.417 32.128 M48.500 32.369 C 48.500 32.553,48.960 32.533,49.077 32.343 C 49.130 32.257,49.022 32.198,48.837 32.212 C 48.652 32.226,48.500 32.297,48.500 32.369 M52.333 32.340 C 52.333 32.428,52.558 32.500,52.833 32.500 C 53.484 32.500,53.484 32.261,52.833 32.215 C 52.558 32.196,52.333 32.252,52.333 32.340 M64.750 32.345 C 64.479 32.452,64.517 32.479,64.958 32.488 C 65.522 32.500,65.649 32.425,65.292 32.291 C 65.177 32.248,64.933 32.272,64.750 32.345 M39.908 38.689 C 39.645 38.796,39.669 38.813,40.035 38.778 C 40.284 38.754,40.528 38.694,40.577 38.645 C 40.713 38.510,40.277 38.538,39.908 38.689 M33.832 40.752 C 33.607 41.023,33.783 41.079,34.143 40.852 C 34.280 40.765,34.304 40.668,34.203 40.606 C 34.112 40.550,33.945 40.615,33.832 40.752 M32.833 40.917 C 32.716 41.059,32.657 41.212,32.702 41.258 C 32.748 41.304,32.882 41.225,33.000 41.083 C 33.118 40.941,33.177 40.788,33.131 40.742 C 33.085 40.696,32.951 40.775,32.833 40.917 M31.480 41.125 C 31.469 41.194,31.472 41.315,31.487 41.395 C 31.501 41.474,31.327 41.493,31.100 41.436 C 30.873 41.379,30.641 41.407,30.585 41.497 C 30.524 41.596,30.603 41.619,30.783 41.555 C 30.948 41.495,31.034 41.502,30.973 41.570 C 30.912 41.637,30.667 41.714,30.428 41.741 C 30.188 41.767,29.857 41.912,29.690 42.062 C 29.488 42.245,29.227 42.304,28.902 42.241 C 28.522 42.167,28.369 42.225,28.196 42.507 C 28.013 42.807,28.013 42.849,28.196 42.755 C 28.317 42.693,28.269 42.762,28.088 42.908 C 27.907 43.054,27.664 43.137,27.546 43.092 C 27.429 43.047,27.333 43.090,27.333 43.187 C 27.333 43.284,27.165 43.505,26.958 43.678 C 26.637 43.948,26.619 44.017,26.833 44.161 C 27.046 44.303,27.039 44.329,26.782 44.331 C 26.616 44.332,26.523 44.403,26.576 44.488 C 26.629 44.574,26.595 44.691,26.500 44.750 C 26.405 44.809,26.371 44.927,26.425 45.013 C 26.478 45.099,26.410 45.212,26.274 45.264 C 26.103 45.330,26.032 45.595,26.040 46.138 C 26.047 46.566,26.087 46.767,26.128 46.583 C 26.170 46.400,26.310 46.189,26.439 46.115 C 26.568 46.040,26.629 45.908,26.575 45.820 C 26.521 45.733,26.397 45.710,26.300 45.770 C 26.199 45.833,26.156 45.781,26.201 45.648 C 26.243 45.521,26.443 45.408,26.646 45.397 C 26.848 45.387,27.185 45.218,27.393 45.022 C 27.601 44.827,27.860 44.667,27.969 44.667 C 28.078 44.667,28.167 44.554,28.167 44.417 C 28.167 44.279,28.305 44.167,28.474 44.167 C 28.643 44.167,28.917 44.017,29.083 43.833 C 29.249 43.650,29.481 43.500,29.598 43.500 C 29.715 43.500,29.858 43.350,29.917 43.167 C 29.975 42.983,30.141 42.833,30.286 42.833 C 30.431 42.833,30.869 42.571,31.261 42.250 C 31.652 41.929,32.054 41.667,32.153 41.667 C 32.411 41.667,32.375 41.409,32.083 41.167 C 31.911 41.023,31.833 41.017,31.833 41.146 C 31.833 41.249,31.754 41.333,31.657 41.333 C 31.560 41.333,31.527 41.258,31.583 41.167 C 31.640 41.075,31.644 41.000,31.593 41.000 C 31.542 41.000,31.491 41.056,31.480 41.125 " stroke="none" fill="#26dfa4" fill-rule="evenodd"></path><path id="path2" d="M126.435 28.470 C 126.303 28.684,126.530 30.500,126.690 30.500 C 126.769 30.500,126.833 30.626,126.833 30.780 C 126.833 31.186,127.211 32.167,127.367 32.167 C 127.440 32.167,127.500 32.250,127.500 32.352 C 127.500 32.595,129.402 34.500,129.645 34.500 C 129.749 34.500,129.833 34.575,129.833 34.667 C 129.833 34.758,129.909 34.833,130.002 34.833 C 130.094 34.833,130.488 34.980,130.877 35.160 C 131.893 35.630,132.014 35.638,138.292 35.653 L 144.000 35.667 144.000 51.167 L 144.000 66.667 149.000 66.667 L 154.000 66.667 154.000 51.167 L 154.000 35.667 162.857 35.667 L 171.713 35.667 171.608 34.792 C 171.550 34.310,171.502 33.781,171.501 33.615 C 171.501 33.449,171.425 33.360,171.333 33.417 C 171.241 33.474,171.166 33.349,171.166 33.135 C 171.165 32.766,171.002 32.379,170.488 31.519 C 170.139 30.937,168.863 29.699,168.489 29.580 C 168.312 29.524,168.167 29.408,168.167 29.322 C 168.167 29.237,168.060 29.167,167.929 29.167 C 167.798 29.167,167.584 29.060,167.454 28.930 C 167.323 28.799,166.779 28.612,166.244 28.513 C 165.081 28.298,126.567 28.256,126.435 28.470 M188.279 28.444 C 188.112 28.610,188.143 59.132,188.310 59.235 C 188.388 59.284,188.496 59.682,188.548 60.120 C 188.727 61.601,191.136 65.167,191.959 65.167 C 192.058 65.167,192.164 65.227,192.194 65.302 C 192.299 65.554,194.064 66.333,194.533 66.333 C 194.790 66.333,195.000 66.408,195.000 66.500 C 195.000 66.610,200.000 66.667,209.667 66.667 L 224.333 66.667 224.349 66.208 C 224.385 65.188,224.293 64.404,224.110 64.183 C 224.004 64.054,223.926 63.904,223.938 63.849 C 223.950 63.795,223.894 63.576,223.813 63.364 C 223.733 63.152,223.667 62.908,223.667 62.822 C 223.667 62.737,223.610 62.667,223.541 62.667 C 223.471 62.667,223.318 62.448,223.199 62.180 C 222.826 61.337,221.495 60.170,220.292 59.632 C 220.040 59.519,219.833 59.375,219.833 59.311 C 219.833 59.248,219.515 59.143,219.125 59.079 C 218.735 59.015,218.331 58.893,218.226 58.809 C 218.121 58.724,217.971 58.666,217.893 58.681 C 217.814 58.695,213.306 58.697,207.875 58.686 L 198.000 58.667 198.000 54.583 L 198.000 50.500 203.708 50.496 C 206.995 50.494,209.735 50.419,210.167 50.321 C 211.062 50.117,212.167 49.652,212.167 49.479 C 212.167 49.411,212.312 49.310,212.489 49.253 C 212.973 49.100,214.315 47.713,214.433 47.245 C 214.489 47.020,214.597 46.874,214.672 46.920 C 214.816 47.009,214.966 46.647,215.104 45.876 C 215.149 45.624,215.257 45.345,215.343 45.258 C 215.429 45.171,215.500 44.665,215.500 44.133 L 215.500 43.167 206.750 43.167 L 198.000 43.167 198.000 39.417 L 198.000 35.667 209.235 35.667 C 218.135 35.667,220.462 35.623,220.428 35.458 C 220.298 34.824,220.116 34.333,220.009 34.333 C 219.868 34.333,219.427 33.479,219.471 33.292 C 219.487 33.223,219.425 33.167,219.333 33.167 C 219.242 33.167,219.167 33.058,219.167 32.925 C 219.167 32.792,219.065 32.623,218.940 32.550 C 218.816 32.477,218.624 32.141,218.515 31.805 C 218.406 31.469,218.208 31.103,218.075 30.993 C 217.942 30.883,217.833 30.689,217.833 30.563 C 217.833 30.437,217.777 30.333,217.707 30.333 C 217.638 30.333,217.475 30.090,217.346 29.792 C 217.216 29.494,217.067 29.212,217.013 29.167 C 216.960 29.121,216.833 28.933,216.732 28.750 C 216.545 28.412,188.611 28.112,188.279 28.444 M218.500 28.670 C 218.500 28.855,218.706 29.324,218.958 29.712 C 219.209 30.099,219.571 30.717,219.761 31.083 C 219.951 31.450,220.420 32.291,220.803 32.953 C 221.187 33.615,221.500 34.234,221.500 34.328 C 221.500 34.423,221.556 34.500,221.625 34.501 C 221.694 34.501,221.972 34.913,222.244 35.417 C 222.516 35.921,222.789 36.333,222.851 36.333 C 222.913 36.333,223.014 36.534,223.076 36.779 C 223.137 37.023,223.333 37.408,223.510 37.634 C 223.688 37.860,223.833 38.147,223.833 38.272 C 223.833 38.398,223.894 38.500,223.969 38.500 C 224.043 38.500,224.207 38.762,224.333 39.083 C 224.459 39.404,224.615 39.667,224.680 39.667 C 224.744 39.667,224.845 39.857,224.903 40.090 C 224.962 40.323,225.071 40.476,225.147 40.429 C 225.222 40.382,225.373 40.642,225.482 41.005 C 225.591 41.369,225.752 41.667,225.840 41.667 C 225.928 41.667,226.000 41.774,226.000 41.905 C 226.000 42.036,226.115 42.258,226.256 42.399 C 226.397 42.540,226.623 42.901,226.759 43.202 C 227.019 43.781,227.355 44.361,227.509 44.500 C 227.560 44.546,227.701 44.827,227.821 45.125 C 227.942 45.423,228.100 45.667,228.174 45.667 C 228.247 45.667,228.356 45.892,228.417 46.167 C 228.477 46.442,228.597 46.667,228.684 46.667 C 228.771 46.667,228.909 46.843,228.990 47.058 C 229.072 47.273,229.444 47.948,229.818 48.558 C 230.191 49.168,230.441 49.669,230.373 49.672 C 230.305 49.675,230.381 49.753,230.542 49.847 C 230.702 49.940,230.833 50.125,230.833 50.258 C 230.833 50.391,230.902 50.500,230.987 50.500 C 231.071 50.500,231.191 50.730,231.252 51.011 C 231.314 51.292,231.463 51.560,231.584 51.607 C 231.705 51.653,231.852 51.886,231.912 52.124 C 231.972 52.362,232.166 52.742,232.344 52.968 C 232.521 53.194,232.667 53.474,232.667 53.592 C 232.667 53.709,232.723 53.831,232.792 53.861 C 232.943 53.929,233.424 54.748,233.679 55.375 C 233.782 55.627,233.928 55.833,234.003 55.833 C 234.079 55.833,234.227 56.096,234.333 56.417 C 234.439 56.737,234.595 57.000,234.680 57.000 C 234.764 57.000,234.833 57.107,234.833 57.238 C 234.833 57.369,234.940 57.583,235.071 57.714 C 235.202 57.844,235.425 58.206,235.568 58.517 C 235.835 59.101,236.180 59.687,236.343 59.833 C 236.394 59.879,236.534 60.160,236.655 60.458 C 236.775 60.756,236.940 61.000,237.020 61.000 C 237.101 61.000,237.167 61.081,237.167 61.179 C 237.167 61.415,238.516 63.734,238.695 63.806 C 238.771 63.836,238.833 63.941,238.833 64.039 C 238.833 64.137,239.152 64.767,239.542 65.440 L 240.250 66.663 244.000 66.663 L 247.750 66.664 248.125 66.114 C 248.331 65.811,248.500 65.474,248.500 65.365 C 248.500 65.256,248.570 65.167,248.656 65.167 C 248.742 65.167,248.907 64.904,249.023 64.583 C 249.139 64.262,249.277 64.000,249.331 64.000 C 249.385 64.000,249.651 63.569,249.923 63.042 C 250.194 62.515,250.460 62.046,250.512 62.000 C 250.565 61.954,250.662 61.804,250.728 61.667 C 250.795 61.529,251.032 61.117,251.255 60.750 C 251.478 60.383,251.754 59.896,251.868 59.667 C 251.983 59.438,252.153 59.195,252.247 59.128 C 252.340 59.060,252.349 59.004,252.266 59.003 C 252.183 59.001,252.251 58.850,252.417 58.667 C 252.583 58.483,252.650 58.331,252.567 58.328 C 252.485 58.325,252.530 58.231,252.669 58.120 C 252.807 58.008,253.013 57.729,253.126 57.500 C 253.239 57.271,253.403 56.971,253.490 56.833 C 253.940 56.127,255.961 52.544,256.051 52.292 C 256.109 52.131,256.228 52.000,256.315 52.000 C 256.402 52.000,256.523 51.775,256.583 51.500 C 256.644 51.225,256.753 51.000,256.826 51.000 C 256.900 51.000,257.058 50.756,257.179 50.458 C 257.299 50.160,257.440 49.879,257.491 49.833 C 257.605 49.731,257.978 49.085,258.309 48.417 C 258.446 48.142,258.610 47.879,258.674 47.833 C 258.738 47.788,259.003 47.337,259.262 46.833 C 259.521 46.329,259.780 45.879,259.838 45.833 C 259.896 45.788,260.054 45.525,260.191 45.250 C 260.528 44.570,260.897 43.934,261.012 43.833 C 261.165 43.700,261.437 43.016,261.479 42.657 C 261.491 42.560,261.569 42.523,261.653 42.575 C 261.737 42.627,261.854 42.450,261.913 42.182 C 261.972 41.914,262.121 41.656,262.244 41.609 C 262.368 41.561,262.519 41.292,262.581 41.011 C 262.643 40.730,262.746 40.500,262.811 40.500 C 262.875 40.500,263.151 40.071,263.423 39.547 C 263.694 39.024,264.010 38.493,264.125 38.369 C 264.240 38.245,264.333 38.042,264.333 37.919 C 264.333 37.795,264.391 37.669,264.461 37.639 C 264.616 37.572,265.833 35.532,265.833 35.340 C 265.833 35.266,266.115 34.765,266.459 34.227 C 267.411 32.741,267.487 32.615,267.708 32.167 C 267.820 31.938,268.007 31.651,268.123 31.530 C 268.239 31.409,268.333 31.214,268.333 31.097 C 268.333 30.980,268.483 30.711,268.667 30.500 C 268.850 30.289,269.000 30.015,269.000 29.891 C 269.000 29.768,269.056 29.666,269.125 29.665 C 269.275 29.664,269.667 28.857,269.667 28.550 C 269.667 28.042,262.974 28.353,261.903 28.911 C 261.636 29.050,261.285 29.165,261.125 29.166 C 260.965 29.166,260.833 29.236,260.833 29.320 C 260.833 29.405,260.552 29.567,260.208 29.680 C 259.865 29.793,259.492 30.005,259.380 30.151 C 259.269 30.297,259.175 30.354,259.172 30.277 C 259.169 30.200,258.936 30.331,258.654 30.569 C 258.372 30.806,258.067 31.000,257.977 31.000 C 257.887 31.000,257.857 31.070,257.909 31.155 C 257.962 31.240,257.853 31.358,257.667 31.417 C 257.481 31.476,257.365 31.582,257.409 31.654 C 257.453 31.725,257.304 31.882,257.078 32.003 C 256.852 32.124,256.667 32.304,256.666 32.403 C 256.666 32.502,256.494 32.784,256.283 33.029 C 256.072 33.275,255.753 33.761,255.575 34.110 C 255.396 34.459,255.156 34.845,255.042 34.968 C 254.927 35.090,254.833 35.269,254.833 35.365 C 254.833 35.461,254.580 35.962,254.269 36.478 C 253.959 36.994,253.649 37.604,253.580 37.833 C 253.511 38.063,253.409 38.287,253.353 38.333 C 253.205 38.453,252.876 38.994,252.541 39.667 C 252.381 39.987,252.200 40.288,252.138 40.335 C 252.077 40.382,251.975 40.626,251.912 40.877 C 251.849 41.128,251.736 41.333,251.662 41.333 C 251.587 41.333,251.439 41.596,251.333 41.917 C 251.227 42.237,251.079 42.500,251.003 42.500 C 250.879 42.500,250.506 43.359,250.522 43.609 C 250.526 43.666,250.466 43.759,250.389 43.815 C 250.223 43.936,249.908 44.426,249.626 45.000 C 249.514 45.229,249.064 46.042,248.627 46.805 C 248.190 47.569,247.787 48.375,247.732 48.597 C 247.676 48.819,247.577 49.000,247.511 49.000 C 247.445 49.000,247.172 49.450,246.904 50.000 C 246.636 50.549,246.369 50.999,246.310 51.000 C 246.251 51.000,246.153 51.200,246.091 51.445 C 246.030 51.690,245.834 52.075,245.656 52.301 C 245.479 52.527,245.333 52.814,245.333 52.939 C 245.333 53.064,245.270 53.167,245.193 53.167 C 245.116 53.167,244.954 53.467,244.833 53.833 C 244.712 54.200,244.555 54.500,244.485 54.500 C 244.414 54.500,244.308 54.650,244.250 54.833 C 244.086 55.350,243.954 55.243,243.429 54.166 C 243.161 53.616,242.888 53.167,242.822 53.167 C 242.757 53.167,242.653 52.966,242.591 52.721 C 242.530 52.477,242.334 52.092,242.156 51.866 C 241.979 51.640,241.833 51.353,241.833 51.228 C 241.833 51.102,241.773 51.000,241.700 51.000 C 241.627 51.000,241.466 50.719,241.343 50.375 C 241.220 50.031,241.074 49.712,241.018 49.667 C 240.927 49.592,240.380 48.607,239.676 47.250 C 239.533 46.975,239.366 46.712,239.305 46.665 C 239.243 46.618,239.140 46.368,239.075 46.110 C 239.010 45.851,238.861 45.603,238.744 45.558 C 238.626 45.513,238.480 45.276,238.418 45.031 C 238.357 44.787,238.257 44.548,238.195 44.502 C 238.082 44.416,237.853 43.995,236.606 41.583 C 236.227 40.850,235.873 40.212,235.820 40.167 C 235.767 40.121,235.617 39.840,235.488 39.542 C 235.358 39.244,235.201 39.000,235.139 39.000 C 235.077 39.000,234.978 38.781,234.920 38.514 C 234.861 38.247,234.712 37.989,234.589 37.942 C 234.466 37.895,234.314 37.626,234.252 37.345 C 234.191 37.063,234.079 36.833,234.005 36.833 C 233.930 36.833,233.822 36.646,233.765 36.417 C 233.707 36.188,233.593 36.000,233.510 36.000 C 233.427 36.000,233.310 35.775,233.250 35.501 C 233.190 35.227,233.015 34.929,232.862 34.839 C 232.709 34.750,232.645 34.675,232.720 34.672 C 232.795 34.669,232.711 34.460,232.534 34.208 C 232.357 33.956,232.112 33.469,231.989 33.125 C 231.867 32.781,231.706 32.500,231.633 32.500 C 231.560 32.500,231.500 32.399,231.500 32.276 C 231.500 32.152,231.355 31.883,231.177 31.678 C 230.999 31.474,230.806 31.087,230.747 30.820 C 230.688 30.552,230.579 30.333,230.505 30.333 C 230.430 30.333,230.322 30.146,230.265 29.917 C 230.207 29.688,230.093 29.500,230.010 29.500 C 229.927 29.500,229.773 29.238,229.667 28.917 L 229.474 28.333 223.987 28.333 C 218.593 28.333,218.500 28.339,218.500 28.670 M271.426 28.704 C 271.283 28.907,271.167 29.170,271.167 29.287 C 271.167 29.404,271.097 29.500,271.013 29.500 C 270.928 29.500,270.773 29.762,270.667 30.083 C 270.561 30.404,270.406 30.667,270.324 30.667 C 270.241 30.667,270.126 30.854,270.068 31.083 C 270.011 31.313,269.893 31.500,269.805 31.500 C 269.718 31.500,269.688 31.567,269.738 31.648 C 269.789 31.729,269.718 31.888,269.581 32.002 C 269.445 32.115,269.333 32.311,269.333 32.437 C 269.333 32.563,269.267 32.667,269.186 32.667 C 269.052 32.667,268.793 33.345,268.880 33.470 C 268.900 33.499,268.794 33.592,268.644 33.676 C 268.493 33.760,268.321 34.027,268.260 34.268 C 268.200 34.509,268.038 34.819,267.901 34.956 C 267.684 35.173,267.660 36.752,267.713 47.394 C 267.770 59.126,267.794 60.016,268.051 60.273 C 268.114 60.337,268.167 60.484,268.167 60.600 C 268.167 60.717,268.254 61.023,268.361 61.281 C 268.468 61.539,268.567 61.788,268.581 61.833 C 268.697 62.208,269.080 62.833,269.193 62.833 C 269.270 62.833,269.333 62.946,269.333 63.083 C 269.333 63.221,269.408 63.333,269.500 63.333 C 269.592 63.333,269.667 63.406,269.667 63.494 C 269.667 63.583,269.929 63.918,270.250 64.239 C 270.571 64.560,270.833 64.784,270.833 64.738 C 270.833 64.659,271.039 64.812,271.563 65.277 C 271.998 65.665,273.098 66.175,273.712 66.275 C 274.058 66.331,274.381 66.442,274.430 66.522 C 274.480 66.602,281.102 66.667,289.267 66.667 L 304.014 66.667 303.979 65.958 C 303.961 65.569,303.893 65.175,303.829 65.083 C 303.765 64.992,303.662 64.587,303.600 64.184 C 303.539 63.781,303.341 63.245,303.161 62.992 C 302.981 62.739,302.833 62.484,302.833 62.426 C 302.833 62.163,300.949 60.167,300.701 60.167 C 300.591 60.167,300.500 60.101,300.500 60.020 C 300.500 59.940,300.256 59.783,299.958 59.672 C 299.660 59.561,299.218 59.365,298.974 59.235 C 298.731 59.106,298.337 59.000,298.099 59.000 C 297.861 59.000,297.667 58.922,297.667 58.826 C 297.667 58.730,297.573 58.664,297.458 58.679 C 297.344 58.694,292.769 58.697,287.292 58.686 L 277.333 58.667 277.333 54.583 L 277.333 50.500 282.945 50.500 C 288.205 50.500,290.667 50.341,290.667 50.001 C 290.667 49.929,290.861 49.821,291.098 49.761 C 291.622 49.630,291.756 49.526,293.107 48.208 C 293.783 47.549,294.212 46.982,294.275 46.666 C 294.330 46.392,294.431 46.167,294.500 46.167 C 294.568 46.167,294.674 45.852,294.736 45.467 C 294.798 45.082,294.925 44.674,295.019 44.561 C 295.113 44.448,295.166 44.106,295.136 43.803 L 295.083 43.250 286.208 43.207 L 277.333 43.164 277.333 39.421 L 277.333 35.678 288.111 35.631 C 296.551 35.594,298.904 35.538,298.958 35.375 C 298.997 35.260,299.184 35.167,299.374 35.167 C 299.784 35.167,301.167 34.390,301.167 34.160 C 301.167 34.072,301.266 34.000,301.388 34.000 C 301.652 34.000,302.333 33.308,302.333 33.039 C 302.333 32.935,302.431 32.790,302.551 32.717 C 302.956 32.468,303.500 31.380,303.606 30.605 C 303.664 30.181,303.780 29.833,303.864 29.833 C 303.947 29.833,303.998 29.496,303.977 29.083 L 303.938 28.333 287.812 28.333 L 271.686 28.333 271.426 28.704 M305.667 47.511 L 305.667 66.690 306.792 66.654 C 307.410 66.635,307.992 66.566,308.083 66.500 C 308.175 66.434,308.505 66.332,308.817 66.273 C 309.733 66.099,311.005 65.422,311.757 64.708 C 311.877 64.594,312.043 64.500,312.125 64.500 C 312.207 64.500,312.531 64.187,312.845 63.804 C 313.160 63.421,313.529 62.988,313.667 62.842 C 314.013 62.473,314.833 60.805,314.833 60.470 C 314.833 60.318,314.927 60.163,315.042 60.125 C 315.205 60.071,315.260 57.434,315.298 47.861 L 315.346 35.667 324.781 35.667 C 333.983 35.667,334.240 35.675,335.187 36.021 C 336.424 36.472,337.864 37.817,338.095 38.737 C 338.155 38.975,338.270 39.211,338.352 39.261 C 338.559 39.389,338.541 41.833,338.333 41.833 C 338.242 41.833,338.167 41.956,338.167 42.105 C 338.167 42.898,336.560 44.681,335.552 45.005 C 335.202 45.118,334.840 45.270,334.747 45.343 C 334.654 45.416,331.970 45.500,328.783 45.530 C 324.679 45.568,322.953 45.639,322.869 45.773 C 322.803 45.878,322.430 46.059,322.040 46.175 C 321.649 46.292,321.246 46.488,321.144 46.610 C 321.042 46.733,320.897 46.833,320.820 46.833 C 320.607 46.833,319.333 48.090,319.333 48.299 C 319.333 48.401,319.240 48.543,319.125 48.617 C 318.652 48.919,318.112 50.402,318.034 51.614 L 317.956 52.833 320.542 52.833 L 323.127 52.833 324.541 54.250 C 325.318 55.029,326.039 55.667,326.144 55.667 C 326.248 55.667,326.333 55.779,326.333 55.917 C 326.333 56.054,326.409 56.167,326.501 56.167 C 326.593 56.167,327.232 56.729,327.922 57.417 C 328.612 58.104,329.253 58.667,329.348 58.667 C 329.442 58.667,329.477 58.735,329.426 58.819 C 329.374 58.903,329.553 59.069,329.824 59.189 C 330.095 59.309,330.408 59.578,330.520 59.787 C 330.632 59.996,330.773 60.167,330.834 60.167 C 330.895 60.167,331.287 60.504,331.706 60.917 C 332.124 61.329,332.554 61.667,332.660 61.667 C 332.766 61.667,332.807 61.742,332.750 61.833 C 332.693 61.925,332.724 62.000,332.817 62.000 C 332.911 62.000,333.284 62.300,333.647 62.667 C 334.010 63.033,334.354 63.333,334.411 63.333 C 334.467 63.333,334.675 63.483,334.872 63.667 C 335.069 63.850,335.328 64.000,335.448 64.000 C 335.568 64.000,335.667 64.069,335.667 64.152 C 335.667 64.236,336.323 64.619,337.125 65.003 C 337.927 65.386,338.706 65.763,338.856 65.840 C 339.006 65.916,339.606 66.067,340.189 66.174 C 340.773 66.281,341.374 66.432,341.525 66.509 C 341.927 66.713,351.391 66.744,351.459 66.541 C 351.515 66.370,349.592 64.579,348.576 63.856 C 348.259 63.631,348.000 63.384,348.000 63.307 C 348.000 63.230,347.922 63.167,347.828 63.167 C 347.733 63.167,347.435 62.942,347.167 62.667 C 346.898 62.392,346.617 62.167,346.543 62.167 C 346.469 62.167,346.110 61.869,345.746 61.505 C 345.381 61.142,345.016 60.842,344.935 60.839 C 344.853 60.836,344.572 60.609,344.310 60.335 C 344.048 60.061,343.833 59.876,343.833 59.925 C 343.833 59.973,343.721 59.916,343.584 59.798 C 343.447 59.680,343.076 59.358,342.760 59.083 C 341.822 58.268,341.284 57.835,340.676 57.405 C 340.360 57.182,340.173 57.000,340.259 56.999 C 340.346 56.999,340.085 56.778,339.679 56.509 C 339.273 56.240,338.875 55.903,338.795 55.760 C 338.716 55.617,338.576 55.500,338.486 55.500 C 338.396 55.500,338.118 55.292,337.869 55.037 C 337.620 54.782,337.372 54.576,337.317 54.579 C 337.262 54.581,337.037 54.416,336.817 54.211 C 336.089 53.534,335.618 53.167,335.474 53.167 C 335.397 53.167,335.333 53.103,335.333 53.025 C 335.333 52.947,336.065 52.836,336.958 52.778 C 338.356 52.688,340.713 52.139,341.000 51.838 C 341.046 51.789,341.510 51.530,342.032 51.261 C 342.554 50.992,342.944 50.711,342.898 50.636 C 342.851 50.561,342.923 50.500,343.056 50.500 C 343.189 50.500,343.475 50.314,343.691 50.086 C 343.907 49.859,344.182 49.671,344.302 49.670 C 344.421 49.668,344.477 49.597,344.424 49.512 C 344.372 49.427,344.485 49.308,344.677 49.247 C 344.868 49.186,344.991 49.102,344.950 49.061 C 344.908 49.020,345.087 48.745,345.348 48.451 C 345.608 48.157,345.824 47.860,345.827 47.792 C 345.831 47.723,345.965 47.522,346.125 47.345 C 346.664 46.751,346.847 46.500,346.741 46.500 C 346.683 46.500,346.823 46.179,347.053 45.787 C 347.283 45.394,347.525 44.775,347.591 44.412 C 347.656 44.048,347.794 43.645,347.897 43.516 C 348.017 43.365,348.083 42.324,348.083 40.583 C 348.083 38.842,348.017 37.801,347.897 37.651 C 347.794 37.522,347.658 37.125,347.593 36.769 C 347.529 36.413,347.332 35.851,347.155 35.522 C 346.978 35.192,346.833 34.864,346.833 34.794 C 346.833 34.724,346.702 34.522,346.542 34.345 C 345.994 33.742,345.853 33.536,345.934 33.455 C 346.143 33.246,342.781 30.167,342.344 30.167 C 342.247 30.167,342.167 30.095,342.167 30.006 C 342.167 29.918,341.855 29.762,341.475 29.660 C 341.094 29.557,340.677 29.367,340.546 29.237 C 340.416 29.107,340.127 29.000,339.905 29.000 C 339.682 29.000,339.500 28.934,339.500 28.854 C 339.500 28.419,336.514 28.333,321.327 28.333 L 305.667 28.333 305.667 47.511 M344.000 28.546 C 344.000 28.833,344.789 29.764,346.542 31.549 C 347.344 32.365,348.000 33.063,348.000 33.100 C 348.000 33.137,348.131 33.303,348.292 33.470 C 348.452 33.637,349.052 34.274,349.625 34.887 C 350.198 35.499,350.667 35.946,350.667 35.880 C 350.667 35.813,350.796 35.945,350.954 36.171 C 351.402 36.813,351.964 37.430,353.583 39.057 C 354.408 39.886,355.083 40.613,355.083 40.672 C 355.083 40.732,355.571 41.269,356.167 41.865 C 356.762 42.461,357.541 43.279,357.896 43.683 C 358.599 44.482,361.656 47.765,362.792 48.942 L 363.500 49.675 363.500 58.171 L 363.500 66.667 364.667 66.667 C 365.333 66.667,365.833 66.595,365.833 66.500 C 365.833 66.408,366.010 66.333,366.225 66.333 C 366.749 66.333,367.667 66.005,367.667 65.817 C 367.667 65.734,367.723 65.675,367.792 65.685 C 368.043 65.721,368.667 65.457,368.667 65.314 C 368.667 65.233,368.753 65.167,368.859 65.167 C 368.965 65.167,369.336 64.885,369.683 64.542 C 370.029 64.198,370.505 63.740,370.740 63.524 C 370.975 63.308,371.167 63.035,371.167 62.917 C 371.167 62.799,371.279 62.659,371.417 62.606 C 371.554 62.554,371.667 62.396,371.667 62.255 C 371.667 62.115,371.742 62.000,371.833 62.000 C 371.925 62.000,371.988 61.944,371.973 61.875 C 371.958 61.806,372.033 61.539,372.140 61.281 C 372.246 61.023,372.333 60.710,372.333 60.586 C 372.333 60.462,372.427 60.330,372.542 60.292 C 372.701 60.239,372.763 58.980,372.804 54.945 C 372.842 51.276,372.914 49.667,373.040 49.667 C 373.140 49.667,373.183 49.628,373.136 49.580 C 373.089 49.533,373.357 49.173,373.733 48.781 C 374.109 48.389,375.204 47.227,376.167 46.198 C 377.129 45.169,378.592 43.619,379.417 42.754 C 380.932 41.165,381.473 40.577,382.458 39.444 C 382.756 39.102,383.000 38.872,383.000 38.933 C 383.000 38.995,383.154 38.849,383.343 38.609 C 383.531 38.370,383.888 37.956,384.134 37.690 C 385.923 35.764,388.165 33.395,389.541 31.978 C 390.434 31.058,391.290 30.093,391.443 29.833 C 391.596 29.574,391.892 29.284,392.101 29.189 C 392.334 29.083,392.471 28.884,392.455 28.675 C 392.411 28.087,383.706 28.233,382.917 28.835 C 382.825 28.904,382.506 29.014,382.208 29.077 C 381.910 29.141,381.667 29.251,381.667 29.321 C 381.667 29.392,381.385 29.574,381.042 29.727 C 380.093 30.148,379.657 30.435,379.779 30.557 C 379.839 30.617,379.781 30.667,379.649 30.667 C 379.517 30.667,378.810 31.306,378.079 32.087 C 377.348 32.869,376.113 34.175,375.333 34.990 C 373.944 36.444,372.454 38.090,372.042 38.626 C 371.927 38.775,371.832 38.826,371.831 38.740 C 371.829 38.654,371.758 38.695,371.672 38.830 C 371.257 39.486,368.395 42.505,368.201 42.492 C 368.136 42.487,367.446 41.805,366.667 40.976 C 365.887 40.147,364.669 38.873,363.958 38.145 C 363.248 37.417,362.667 36.745,362.667 36.651 C 362.667 36.557,362.597 36.523,362.512 36.576 C 362.427 36.628,362.315 36.537,362.263 36.373 C 362.145 36.002,361.025 34.833,360.787 34.833 C 360.690 34.833,360.652 34.792,360.702 34.742 C 360.796 34.648,360.315 34.113,357.792 31.507 C 356.990 30.678,356.333 29.925,356.333 29.834 C 356.333 29.742,356.221 29.667,356.083 29.667 C 355.946 29.667,355.833 29.585,355.833 29.485 C 355.833 29.385,355.627 29.085,355.376 28.818 L 354.918 28.333 349.459 28.333 C 345.140 28.333,344.000 28.378,344.000 28.546 M162.266 43.308 C 162.052 43.654,162.663 46.377,163.019 46.667 C 163.076 46.712,163.172 46.912,163.234 47.110 C 163.372 47.554,165.143 49.333,165.446 49.333 C 165.567 49.333,165.667 49.402,165.667 49.487 C 165.667 49.571,165.892 49.690,166.167 49.750 C 166.442 49.810,166.667 49.919,166.667 49.990 C 166.667 50.355,168.883 50.500,174.444 50.500 L 180.333 50.500 180.333 49.456 C 180.333 48.730,180.232 48.222,180.000 47.790 C 179.817 47.448,179.667 47.055,179.667 46.917 C 179.667 46.779,179.594 46.667,179.504 46.667 C 179.415 46.667,179.233 46.455,179.099 46.197 C 178.800 45.619,177.497 44.333,177.210 44.333 C 177.095 44.333,177.000 44.261,177.000 44.173 C 177.000 44.085,176.681 43.928,176.292 43.823 C 175.902 43.719,175.478 43.548,175.350 43.442 C 175.051 43.196,162.415 43.067,162.266 43.308 M151.792 73.943 C 151.540 73.987,151.333 74.084,151.333 74.159 C 151.333 74.234,150.996 74.346,150.583 74.408 C 150.171 74.470,149.833 74.583,149.833 74.659 C 149.833 74.735,149.665 74.840,149.458 74.892 C 148.895 75.034,146.167 77.396,146.167 77.743 C 146.167 77.844,145.990 78.079,145.530 78.589 C 145.409 78.723,145.371 78.834,145.446 78.836 C 145.522 78.837,145.508 78.894,145.417 78.961 C 145.164 79.147,144.681 80.182,144.563 80.792 C 144.505 81.090,144.405 81.333,144.340 81.333 C 144.275 81.333,144.211 81.427,144.197 81.542 C 144.183 81.656,144.089 82.275,143.988 82.917 C 143.690 84.807,143.936 90.087,144.334 90.334 C 144.409 90.380,144.522 90.698,144.586 91.041 C 144.651 91.383,144.761 91.628,144.831 91.585 C 144.902 91.541,145.002 91.720,145.055 91.983 C 145.107 92.245,145.266 92.576,145.408 92.718 C 145.550 92.860,145.667 93.041,145.667 93.121 C 145.667 93.525,147.829 95.773,148.596 96.166 C 148.864 96.304,149.121 96.458,149.167 96.509 C 149.439 96.811,151.239 97.391,152.125 97.462 C 152.698 97.508,153.167 97.610,153.167 97.689 C 153.167 97.877,155.453 97.878,155.569 97.690 C 155.617 97.612,156.061 97.506,156.556 97.455 C 157.338 97.374,159.092 96.777,159.333 96.509 C 159.379 96.458,159.636 96.304,159.904 96.166 C 160.448 95.888,162.333 94.057,162.333 93.807 C 162.333 93.719,162.408 93.693,162.500 93.750 C 162.595 93.808,162.667 93.668,162.667 93.427 C 162.667 93.192,162.604 93.000,162.527 93.000 C 162.450 93.000,162.300 92.810,162.194 92.577 C 162.088 92.344,161.925 92.063,161.833 91.952 C 160.258 90.067,160.421 90.146,159.611 90.875 C 159.280 91.173,158.814 91.567,158.575 91.750 C 158.336 91.933,158.046 92.169,157.932 92.275 C 157.033 93.103,152.766 93.701,152.367 93.055 C 152.301 92.948,152.050 92.810,151.809 92.750 C 150.581 92.442,148.779 89.777,148.566 87.954 C 148.504 87.424,148.389 86.951,148.310 86.902 C 148.121 86.785,148.125 84.743,148.315 84.373 C 148.397 84.214,148.552 83.605,148.659 83.021 C 148.767 82.437,149.038 81.669,149.263 81.313 C 149.487 80.958,149.614 80.664,149.544 80.662 C 149.474 80.659,149.548 80.580,149.708 80.487 C 149.869 80.393,150.000 80.242,150.000 80.150 C 150.000 79.923,150.799 79.200,151.185 79.077 C 151.358 79.022,151.500 78.913,151.500 78.835 C 151.500 78.757,151.781 78.606,152.125 78.501 C 152.469 78.396,152.907 78.234,153.100 78.140 C 154.335 77.541,157.122 78.384,158.694 79.833 C 158.943 80.063,159.336 80.424,159.568 80.637 C 160.134 81.158,160.640 81.053,161.023 80.336 C 161.194 80.017,161.333 79.821,161.333 79.901 C 161.333 80.338,162.192 78.693,162.268 78.110 C 162.431 76.869,159.603 74.333,158.057 74.333 C 157.858 74.333,157.664 74.243,157.627 74.132 C 157.559 73.927,152.785 73.772,151.792 73.943 M171.708 73.996 C 171.502 74.084,171.333 74.112,171.333 74.058 C 171.333 74.003,171.240 74.035,171.125 74.127 C 171.010 74.219,170.673 74.347,170.375 74.411 C 170.077 74.474,169.833 74.580,169.833 74.646 C 169.833 74.712,169.555 74.867,169.214 74.990 C 168.874 75.113,168.507 75.297,168.400 75.399 C 168.292 75.500,167.995 75.733,167.739 75.917 C 167.207 76.299,166.667 76.846,166.667 77.003 C 166.667 77.062,166.479 77.211,166.250 77.333 C 166.021 77.456,165.867 77.589,165.907 77.629 C 165.987 77.709,165.746 78.037,165.292 78.465 C 165.131 78.617,165.000 78.837,165.000 78.954 C 165.000 79.071,164.934 79.167,164.853 79.167 C 164.716 79.167,164.533 79.611,164.568 79.858 C 164.577 79.917,164.458 80.104,164.305 80.274 C 164.151 80.444,163.972 80.808,163.907 81.083 C 163.841 81.358,163.727 81.661,163.653 81.756 C 163.044 82.537,163.046 89.450,163.656 89.826 C 163.737 89.876,163.855 90.198,163.920 90.541 C 163.984 90.883,164.103 91.122,164.185 91.072 C 164.267 91.022,164.333 91.109,164.333 91.267 C 164.333 92.198,167.587 96.015,168.596 96.268 C 168.818 96.324,169.000 96.431,169.000 96.505 C 169.000 96.640,169.950 97.010,170.231 96.985 C 170.313 96.978,170.429 97.053,170.491 97.152 C 170.552 97.251,171.064 97.380,171.630 97.439 C 172.195 97.498,172.618 97.611,172.569 97.690 C 172.423 97.926,175.568 97.863,175.824 97.625 C 176.005 97.457,176.024 97.460,175.924 97.637 C 175.826 97.809,175.867 97.820,176.108 97.688 C 176.278 97.594,176.773 97.471,177.208 97.415 C 177.644 97.359,178.000 97.255,178.000 97.184 C 178.000 97.113,178.094 97.054,178.208 97.052 C 178.643 97.044,180.500 96.049,180.500 95.824 C 180.500 95.738,180.598 95.667,180.717 95.667 C 180.959 95.667,182.833 93.832,182.833 93.595 C 182.833 93.543,182.983 93.350,183.167 93.167 C 183.350 92.983,183.500 92.716,183.500 92.573 C 183.500 92.431,183.569 92.356,183.653 92.408 C 183.737 92.460,183.856 92.277,183.916 92.001 C 183.977 91.726,184.089 91.500,184.165 91.500 C 184.240 91.500,184.399 91.125,184.516 90.667 C 184.634 90.208,184.785 89.833,184.853 89.833 C 184.921 89.833,185.023 89.402,185.080 88.875 C 185.136 88.348,185.259 87.780,185.351 87.612 C 185.540 87.269,185.528 84.174,185.337 83.917 C 185.268 83.825,185.167 83.348,185.112 82.857 C 185.057 82.366,184.947 81.879,184.868 81.774 C 184.789 81.669,184.634 81.265,184.522 80.875 C 184.411 80.485,184.256 80.167,184.178 80.167 C 184.100 80.167,183.992 79.989,183.937 79.772 C 183.599 78.425,180.778 75.520,179.292 74.990 C 178.948 74.867,178.667 74.706,178.667 74.633 C 178.667 74.560,178.535 74.500,178.375 74.499 C 178.215 74.498,177.858 74.373,177.583 74.220 C 177.001 73.896,172.358 73.720,171.708 73.996 M242.605 74.131 C 242.551 74.218,242.131 74.339,241.670 74.400 C 241.210 74.462,240.833 74.572,240.833 74.646 C 240.833 74.720,240.533 74.879,240.167 75.000 C 239.800 75.121,239.500 75.283,239.500 75.360 C 239.500 75.437,239.385 75.500,239.245 75.500 C 239.104 75.500,238.946 75.612,238.894 75.750 C 238.841 75.887,238.696 76.000,238.571 76.000 C 238.447 76.000,237.855 76.487,237.256 77.083 C 236.657 77.679,236.204 78.167,236.249 78.167 C 236.294 78.167,236.172 78.350,235.978 78.573 C 235.341 79.305,234.436 81.099,234.249 82.000 C 234.183 82.321,234.043 82.689,233.939 82.817 C 233.677 83.142,233.676 89.132,233.938 89.298 C 234.041 89.363,234.179 89.717,234.244 90.083 C 234.309 90.450,234.540 91.087,234.758 91.500 C 234.976 91.912,235.271 92.494,235.413 92.792 C 235.555 93.090,235.745 93.333,235.836 93.333 C 235.926 93.333,236.000 93.413,236.000 93.510 C 236.000 94.336,239.762 97.148,241.235 97.425 C 241.564 97.487,241.833 97.588,241.833 97.650 C 241.833 97.963,247.311 98.027,247.693 97.719 C 247.816 97.620,248.176 97.483,248.493 97.415 C 249.168 97.270,250.333 96.692,250.333 96.501 C 250.333 96.429,250.509 96.325,250.724 96.272 C 251.120 96.172,253.044 94.374,253.500 93.677 C 253.637 93.467,253.881 93.123,254.042 92.913 C 254.202 92.703,254.333 92.449,254.333 92.349 C 254.333 92.249,254.396 92.167,254.473 92.167 C 254.550 92.167,254.712 91.867,254.833 91.500 C 254.954 91.133,255.114 90.833,255.188 90.833 C 255.261 90.833,255.372 90.458,255.432 90.000 C 255.493 89.542,255.596 89.167,255.661 89.167 C 256.018 89.167,256.008 83.448,255.650 82.917 C 255.588 82.825,255.485 82.431,255.421 82.042 C 255.357 81.652,255.245 81.333,255.172 81.333 C 255.099 81.333,254.955 80.996,254.851 80.583 C 254.747 80.171,254.589 79.833,254.501 79.833 C 254.412 79.833,254.293 79.646,254.235 79.417 C 254.178 79.188,254.069 79.000,253.993 79.000 C 253.918 79.000,253.812 78.863,253.759 78.696 C 253.630 78.288,251.361 76.000,251.086 76.000 C 250.967 76.000,250.826 75.887,250.773 75.750 C 250.720 75.612,250.562 75.500,250.422 75.500 C 250.282 75.500,250.167 75.425,250.167 75.333 C 250.167 75.242,250.078 75.167,249.969 75.167 C 249.861 75.167,249.467 75.025,249.094 74.852 C 247.647 74.181,242.900 73.654,242.605 74.131 M188.958 74.456 C 188.431 74.490,187.991 74.569,187.980 74.633 C 187.969 74.697,187.946 79.825,187.929 86.028 L 187.897 97.307 189.907 97.366 C 192.518 97.443,192.491 97.469,192.496 94.885 C 192.498 93.817,192.429 92.976,192.333 92.917 C 192.230 92.853,192.167 91.304,192.167 88.823 C 192.167 86.274,192.227 84.833,192.333 84.833 C 192.425 84.833,192.509 84.908,192.521 85.000 C 192.532 85.092,192.557 85.223,192.576 85.292 C 192.809 86.137,192.889 86.333,193.000 86.333 C 193.071 86.333,193.179 86.596,193.239 86.917 C 193.299 87.237,193.410 87.500,193.486 87.500 C 193.561 87.500,193.718 87.837,193.833 88.250 C 193.949 88.662,194.100 89.000,194.170 89.000 C 194.239 89.000,194.345 89.263,194.406 89.583 C 194.466 89.904,194.587 90.167,194.674 90.167 C 194.762 90.167,194.833 90.301,194.833 90.465 C 194.833 90.629,194.983 91.057,195.167 91.417 C 195.350 91.776,195.500 92.162,195.500 92.273 C 195.500 92.385,195.598 92.575,195.718 92.696 C 195.838 92.818,196.035 93.273,196.156 93.708 C 196.277 94.144,196.434 94.500,196.503 94.500 C 196.573 94.500,196.679 94.763,196.739 95.083 C 196.799 95.404,196.914 95.667,196.994 95.667 C 197.075 95.667,197.192 95.910,197.256 96.208 C 197.320 96.506,197.447 96.844,197.540 96.958 C 197.632 97.073,197.661 97.167,197.604 97.167 C 197.547 97.167,197.650 97.317,197.833 97.500 C 198.270 97.937,201.000 98.009,201.000 97.583 C 201.000 97.446,201.079 97.333,201.177 97.333 C 201.274 97.333,201.310 97.264,201.257 97.178 C 201.204 97.093,201.229 96.981,201.312 96.930 C 201.394 96.879,201.512 96.574,201.572 96.252 C 201.632 95.930,201.744 95.667,201.820 95.667 C 201.895 95.667,202.005 95.367,202.064 95.000 C 202.123 94.633,202.239 94.333,202.323 94.333 C 202.407 94.333,202.568 93.923,202.680 93.422 C 202.792 92.921,202.941 92.547,203.010 92.590 C 203.080 92.633,203.188 92.367,203.250 92.000 C 203.312 91.633,203.420 91.367,203.490 91.410 C 203.559 91.453,203.715 91.079,203.835 90.578 C 203.955 90.077,204.116 89.667,204.193 89.667 C 204.270 89.667,204.333 89.588,204.333 89.491 C 204.333 89.394,204.485 88.982,204.671 88.574 C 204.856 88.167,205.053 87.608,205.108 87.333 C 205.163 87.058,205.274 86.833,205.354 86.833 C 205.434 86.833,205.503 86.740,205.506 86.625 C 205.509 86.510,205.661 86.117,205.844 85.750 L 206.176 85.083 206.130 91.250 L 206.083 97.417 208.375 97.458 C 209.635 97.481,210.658 97.444,210.647 97.375 C 210.636 97.306,210.641 97.175,210.657 97.083 C 210.701 96.838,210.639 91.020,210.571 89.083 C 210.476 86.335,210.511 84.004,210.739 77.875 C 210.839 75.185,210.822 74.833,210.593 74.833 C 210.450 74.833,210.333 74.766,210.333 74.684 C 210.333 74.602,209.427 74.524,208.319 74.511 C 206.962 74.494,206.340 74.543,206.413 74.660 C 206.471 74.755,206.454 74.833,206.374 74.833 C 206.220 74.833,205.504 76.361,205.495 76.710 C 205.492 76.824,205.379 77.062,205.245 77.240 C 205.110 77.418,205.000 77.723,205.000 77.917 C 205.000 78.111,204.890 78.415,204.755 78.593 C 204.621 78.771,204.508 79.006,204.505 79.114 C 204.502 79.223,204.413 79.523,204.306 79.781 C 204.199 80.039,204.100 80.287,204.087 80.333 C 203.793 81.323,203.589 81.833,203.488 81.833 C 203.419 81.833,203.312 82.133,203.250 82.500 C 203.188 82.867,203.076 83.167,203.001 83.167 C 202.926 83.167,202.768 83.542,202.651 84.000 C 202.533 84.458,202.382 84.833,202.315 84.833 C 202.248 84.833,202.143 85.063,202.081 85.345 C 202.019 85.626,201.864 86.057,201.735 86.303 C 201.607 86.549,201.502 86.810,201.501 86.884 C 201.500 86.958,201.341 87.367,201.147 87.793 C 200.953 88.220,200.780 88.659,200.764 88.770 C 200.748 88.881,200.612 89.221,200.462 89.527 C 200.313 89.833,200.039 90.413,199.854 90.816 L 199.518 91.549 199.235 90.899 C 199.079 90.542,198.850 90.006,198.726 89.708 C 198.602 89.410,198.390 88.923,198.256 88.625 C 198.121 88.327,197.963 87.877,197.904 87.625 C 197.845 87.373,197.736 87.167,197.662 87.167 C 197.587 87.167,197.474 86.923,197.411 86.625 C 197.347 86.327,197.196 85.896,197.076 85.667 C 196.877 85.290,196.694 84.883,195.878 83.000 C 195.739 82.679,195.494 82.154,195.334 81.833 C 195.174 81.512,194.990 81.026,194.925 80.752 C 194.860 80.478,194.757 80.215,194.695 80.168 C 194.529 80.042,194.052 79.004,193.833 78.292 C 193.727 77.948,193.578 77.667,193.500 77.667 C 193.423 77.667,193.312 77.449,193.254 77.183 C 193.195 76.917,193.002 76.414,192.824 76.064 C 192.646 75.715,192.500 75.333,192.500 75.215 C 192.500 75.097,192.434 75.000,192.353 75.000 C 192.272 75.000,192.166 74.850,192.118 74.667 C 192.026 74.314,191.636 74.288,188.958 74.456 M214.033 74.700 C 213.781 74.952,213.750 79.000,214.000 79.000 C 214.108 79.000,214.167 81.108,214.167 84.990 C 214.167 88.804,214.106 91.018,214.000 91.083 C 213.806 91.203,213.765 97.328,213.958 97.343 C 214.027 97.348,215.096 97.366,216.333 97.384 L 218.583 97.417 218.583 94.500 L 218.583 91.583 221.818 91.632 C 226.385 91.702,228.212 91.340,229.550 90.100 C 229.757 89.907,229.981 89.731,230.047 89.708 C 230.113 89.685,230.185 89.618,230.208 89.559 C 230.231 89.499,230.497 89.181,230.799 88.852 C 231.100 88.523,231.390 88.084,231.442 87.877 C 231.494 87.669,231.594 87.500,231.665 87.500 C 231.821 87.500,232.167 86.186,232.167 85.593 C 232.167 85.358,232.242 85.167,232.333 85.167 C 232.436 85.167,232.500 84.361,232.500 83.083 C 232.500 81.938,232.440 81.000,232.367 81.000 C 232.293 81.000,232.140 80.550,232.027 80.000 C 231.913 79.450,231.756 79.000,231.678 79.000 C 231.600 79.000,231.488 78.807,231.429 78.572 C 231.370 78.336,231.113 77.940,230.859 77.692 C 230.605 77.444,230.348 77.111,230.287 76.954 C 230.227 76.796,230.062 76.667,229.922 76.667 C 229.782 76.667,229.667 76.590,229.667 76.496 C 229.667 76.403,229.482 76.242,229.255 76.139 C 229.029 76.036,228.880 75.893,228.923 75.823 C 228.967 75.752,228.777 75.644,228.501 75.584 C 228.226 75.523,228.000 75.413,228.000 75.340 C 228.000 75.180,226.695 74.833,226.093 74.833 C 225.858 74.833,225.667 74.758,225.667 74.667 C 225.667 74.429,219.957 74.443,219.719 74.681 C 219.588 74.812,219.506 74.812,219.426 74.681 C 219.263 74.418,214.298 74.435,214.033 74.700 M261.265 74.625 C 261.196 74.694,260.502 74.787,259.721 74.833 L 258.302 74.917 258.259 86.198 C 258.216 97.732,258.233 98.076,258.826 97.708 C 259.260 97.439,261.073 97.439,261.503 97.707 C 262.406 98.271,262.409 98.246,262.500 89.815 L 262.583 82.083 262.958 82.667 C 263.164 82.987,263.333 83.175,263.333 83.083 C 263.334 82.992,263.475 83.142,263.647 83.417 C 263.819 83.692,264.119 84.082,264.313 84.285 C 264.508 84.487,264.667 84.723,264.667 84.809 C 264.667 84.895,264.853 85.142,265.080 85.358 C 265.308 85.573,265.496 85.836,265.497 85.941 C 265.499 86.045,265.612 86.174,265.750 86.227 C 265.887 86.280,266.000 86.405,266.000 86.506 C 266.000 86.673,266.978 87.975,267.874 89.000 C 268.074 89.229,268.240 89.476,268.244 89.548 C 268.247 89.620,268.362 89.750,268.500 89.837 C 268.637 89.924,268.688 89.996,268.613 89.997 C 268.538 89.999,268.575 90.106,268.696 90.237 C 268.818 90.367,269.067 90.666,269.250 90.902 C 269.433 91.137,269.723 91.500,269.893 91.707 C 270.063 91.914,270.429 92.421,270.707 92.833 C 270.986 93.246,271.334 93.680,271.482 93.799 C 271.629 93.917,271.756 94.067,271.764 94.132 C 271.805 94.462,272.053 94.820,272.184 94.739 C 272.266 94.688,272.333 94.765,272.333 94.908 C 272.333 95.052,272.483 95.298,272.667 95.455 C 272.850 95.612,273.000 95.820,273.000 95.917 C 273.000 96.013,273.131 96.214,273.292 96.363 C 273.452 96.512,273.799 96.905,274.062 97.237 C 274.541 97.840,276.541 98.176,276.220 97.599 C 276.164 97.499,276.219 97.510,276.342 97.625 C 276.682 97.940,278.273 97.898,278.399 97.570 C 278.454 97.425,278.500 93.337,278.500 88.486 C 278.500 82.561,278.556 79.667,278.671 79.667 C 278.783 79.667,278.826 78.836,278.796 77.292 L 278.750 74.917 276.437 74.870 L 274.124 74.824 274.236 82.620 L 274.347 90.417 273.921 89.917 C 273.687 89.642,273.396 89.304,273.275 89.167 C 273.153 89.029,273.007 88.785,272.949 88.625 C 272.891 88.465,272.771 88.333,272.683 88.333 C 272.595 88.333,272.473 88.178,272.413 87.987 C 272.352 87.797,272.262 87.683,272.211 87.733 C 272.161 87.783,271.999 87.601,271.852 87.329 C 271.579 86.824,270.984 86.034,270.458 85.476 C 270.298 85.306,270.167 85.092,270.167 85.000 C 270.167 84.908,270.079 84.833,269.972 84.833 C 269.865 84.833,269.822 84.790,269.875 84.736 C 269.928 84.683,269.847 84.501,269.694 84.331 C 269.321 83.918,269.189 83.748,268.338 82.583 C 267.936 82.033,267.555 81.546,267.491 81.500 C 267.427 81.454,267.151 81.062,266.878 80.629 C 266.604 80.196,266.339 79.883,266.289 79.934 C 266.238 79.984,266.143 79.851,266.077 79.638 C 266.012 79.424,265.854 79.137,265.727 79.000 C 264.909 78.113,264.326 77.377,264.242 77.125 C 264.188 76.965,264.074 76.833,263.989 76.833 C 263.903 76.833,263.833 76.753,263.833 76.656 C 263.833 76.440,263.070 75.393,262.536 74.875 C 262.156 74.506,261.509 74.379,261.265 74.625 M302.417 74.667 C 302.360 74.758,301.799 74.833,301.170 74.833 C 299.454 74.833,299.500 74.784,299.500 76.611 C 299.500 77.619,299.560 78.149,299.667 78.083 C 299.777 78.015,299.833 80.165,299.833 84.407 C 299.833 88.231,299.771 90.833,299.679 90.833 C 299.374 90.833,299.453 97.310,299.762 97.619 C 299.981 97.838,300.096 97.853,300.348 97.696 C 300.730 97.457,302.773 97.434,302.917 97.667 C 303.065 97.907,303.486 97.872,303.762 97.595 C 303.961 97.396,304.000 96.118,304.000 89.728 C 304.000 82.427,304.013 82.115,304.292 82.482 C 304.452 82.693,304.733 83.040,304.917 83.253 C 305.100 83.466,305.395 83.839,305.573 84.081 C 305.751 84.323,306.013 84.659,306.156 84.828 C 306.299 84.997,306.529 85.305,306.667 85.512 C 306.804 85.719,307.048 86.026,307.208 86.194 C 307.369 86.362,307.500 86.545,307.500 86.601 C 307.500 86.656,307.669 86.909,307.875 87.161 C 308.081 87.414,308.362 87.788,308.500 87.992 C 308.637 88.197,308.919 88.564,309.125 88.807 C 309.331 89.051,309.500 89.311,309.500 89.385 C 309.500 89.459,309.594 89.466,309.708 89.400 C 309.823 89.334,309.863 89.339,309.797 89.412 C 309.667 89.556,310.635 91.000,310.862 91.000 C 310.938 91.000,311.000 91.083,311.000 91.184 C 311.000 91.359,311.540 92.104,312.084 92.681 C 312.221 92.826,312.333 93.003,312.333 93.073 C 312.333 93.280,313.119 94.156,313.231 94.074 C 313.287 94.033,313.298 94.047,313.256 94.106 C 313.159 94.237,314.172 95.667,314.362 95.667 C 314.438 95.667,314.500 95.760,314.500 95.875 C 314.500 96.063,314.701 96.340,315.626 97.426 C 315.947 97.804,317.984 98.046,317.758 97.680 C 317.697 97.581,317.726 97.500,317.823 97.500 C 317.921 97.500,318.000 97.575,318.000 97.667 C 318.000 97.758,318.411 97.833,318.913 97.833 C 320.092 97.833,319.988 98.701,320.079 88.167 C 320.121 83.262,320.200 78.320,320.255 77.183 C 320.375 74.679,320.544 74.839,317.770 74.836 L 315.624 74.833 315.747 82.585 C 315.860 89.680,315.848 90.329,315.602 90.234 C 315.454 90.177,315.333 90.069,315.333 89.994 C 315.333 89.919,315.240 89.758,315.125 89.637 C 315.010 89.516,314.694 89.117,314.423 88.750 C 314.151 88.383,313.720 87.858,313.465 87.583 C 313.210 87.308,313.001 87.001,313.001 86.899 C 313.000 86.798,312.810 86.498,312.579 86.233 C 312.084 85.666,312.113 85.703,311.167 84.417 C 310.338 83.290,310.187 83.095,309.833 82.691 C 309.696 82.534,309.359 82.070,309.084 81.661 C 308.809 81.252,308.542 80.879,308.490 80.833 C 308.438 80.787,307.982 80.187,307.477 79.499 C 306.972 78.812,306.433 78.123,306.279 77.970 C 306.126 77.816,306.000 77.622,306.000 77.538 C 306.000 77.454,305.850 77.249,305.667 77.083 C 305.483 76.917,305.333 76.681,305.333 76.558 C 305.333 76.434,305.269 76.333,305.190 76.333 C 305.112 76.333,304.773 75.921,304.439 75.417 C 303.828 74.497,302.765 74.103,302.417 74.667 M281.845 76.792 C 281.852 77.869,281.916 80.362,281.988 82.333 C 282.060 84.304,282.060 87.154,281.989 88.667 C 281.599 96.910,281.599 97.500,281.993 97.500 C 282.191 97.500,282.307 97.575,282.250 97.667 C 282.190 97.764,282.359 97.833,282.657 97.833 C 282.937 97.833,283.167 97.758,283.167 97.667 C 283.167 97.559,284.917 97.500,288.083 97.500 C 290.787 97.500,293.000 97.564,293.000 97.643 C 293.000 97.815,296.500 98.015,296.780 97.860 C 296.888 97.799,296.972 97.693,296.967 97.623 C 296.932 97.154,297.210 95.167,297.311 95.167 C 297.572 95.167,297.518 93.876,297.253 93.774 C 297.110 93.719,295.702 93.747,294.122 93.834 C 288.137 94.166,286.782 94.069,286.510 93.290 C 286.218 92.452,286.280 88.252,286.588 87.996 C 286.786 87.831,287.892 87.804,291.570 87.872 L 296.296 87.959 296.396 87.355 C 296.451 87.022,296.497 86.092,296.498 85.288 L 296.500 83.826 291.674 83.939 C 285.850 84.076,286.330 84.272,286.343 81.771 C 286.362 78.069,285.961 78.296,292.083 78.525 C 297.214 78.716,297.000 78.757,297.000 77.580 C 297.000 77.078,296.925 76.667,296.833 76.667 C 296.742 76.667,296.667 76.344,296.667 75.950 C 296.667 74.780,297.030 74.833,289.050 74.833 L 281.833 74.833 281.845 76.792 M322.283 74.939 C 322.219 75.003,322.167 75.262,322.167 75.514 C 322.167 75.766,322.097 75.997,322.011 76.028 C 321.925 76.058,321.802 76.742,321.738 77.547 L 321.620 79.011 323.227 78.987 C 324.110 78.973,324.833 78.896,324.833 78.815 C 324.833 78.733,325.546 78.667,326.417 78.667 L 328.000 78.667 328.000 85.177 C 328.000 89.126,327.939 91.649,327.846 91.591 C 327.753 91.534,327.684 92.769,327.674 94.664 C 327.665 96.407,327.715 97.841,327.787 97.851 C 328.538 97.953,332.295 97.914,332.440 97.803 C 332.688 97.612,332.749 94.070,332.506 93.921 C 332.391 93.849,332.333 91.298,332.333 86.240 L 332.333 78.667 334.083 78.667 C 335.046 78.667,335.833 78.732,335.833 78.812 C 335.833 79.052,338.041 79.036,338.194 78.794 C 338.268 78.678,338.329 77.791,338.331 76.822 L 338.333 75.060 331.125 75.068 C 327.160 75.073,323.575 75.020,323.158 74.950 C 322.741 74.880,322.347 74.875,322.283 74.939 M345.588 75.019 C 344.692 75.149,343.552 75.553,343.333 75.817 C 343.287 75.872,343.054 76.018,342.814 76.141 C 341.905 76.609,340.654 78.194,340.836 78.648 C 340.850 78.684,340.762 78.775,340.639 78.850 C 340.470 78.954,340.417 79.562,340.417 81.369 C 340.417 84.043,340.523 84.412,341.628 85.583 C 342.355 86.353,342.829 86.686,344.167 87.365 C 344.396 87.481,344.621 87.625,344.667 87.683 C 344.712 87.742,345.144 87.995,345.625 88.246 C 346.106 88.497,346.500 88.756,346.500 88.823 C 346.500 88.889,346.683 89.041,346.906 89.161 C 347.129 89.280,347.384 89.574,347.473 89.814 C 347.563 90.054,347.691 90.400,347.760 90.583 C 347.957 91.113,347.980 91.333,347.839 91.333 C 347.767 91.333,347.661 91.569,347.604 91.856 C 347.509 92.328,346.826 93.165,346.533 93.168 C 346.469 93.168,346.192 93.299,345.917 93.458 C 345.500 93.699,344.993 93.746,342.875 93.740 L 340.333 93.732 340.339 94.158 C 340.342 94.392,340.461 95.071,340.603 95.667 C 340.744 96.263,340.900 96.996,340.949 97.297 C 341.085 98.135,341.698 98.374,343.472 98.279 C 345.137 98.190,347.167 97.855,347.167 97.670 C 347.167 97.600,347.504 97.449,347.917 97.333 C 348.329 97.218,348.667 97.058,348.667 96.978 C 348.667 96.899,348.762 96.833,348.880 96.833 C 348.997 96.833,349.334 96.613,349.630 96.343 C 349.925 96.073,350.167 95.890,350.167 95.936 C 350.167 95.983,350.392 95.774,350.667 95.473 C 350.942 95.172,351.167 94.817,351.167 94.685 C 351.167 94.553,351.218 94.495,351.280 94.558 C 351.749 95.027,352.242 93.035,352.246 90.654 L 352.250 88.225 351.542 87.170 C 351.152 86.589,350.833 86.175,350.833 86.249 C 350.833 86.324,350.698 86.229,350.533 86.039 C 350.200 85.654,348.742 84.833,348.392 84.833 C 348.268 84.833,348.167 84.776,348.167 84.706 C 348.167 84.570,347.792 84.350,346.792 83.898 C 346.448 83.743,346.167 83.560,346.167 83.491 C 346.167 83.422,345.960 83.294,345.708 83.206 C 344.841 82.904,344.076 80.333,344.852 80.333 C 344.933 80.333,345.000 80.218,345.000 80.078 C 345.000 79.938,345.131 79.774,345.292 79.715 C 345.452 79.656,345.637 79.527,345.703 79.429 C 345.870 79.178,348.976 79.191,349.132 79.443 C 349.197 79.549,349.532 79.689,349.875 79.753 C 350.219 79.818,350.500 79.931,350.500 80.005 C 350.500 80.836,352.095 80.133,352.265 79.227 C 352.323 78.919,352.425 78.667,352.492 78.667 C 352.559 78.667,352.712 78.369,352.832 78.006 C 352.952 77.642,353.114 77.384,353.192 77.432 C 353.270 77.480,353.333 77.265,353.333 76.955 C 353.333 76.350,351.932 75.500,350.934 75.500 C 350.710 75.500,350.503 75.428,350.472 75.339 C 350.418 75.181,347.814 74.818,347.000 74.855 C 346.771 74.865,346.135 74.939,345.588 75.019 M176.125 78.359 C 176.736 78.556,177.314 78.779,177.409 78.854 C 177.505 78.929,177.801 79.180,178.066 79.412 C 178.331 79.644,178.625 79.833,178.719 79.833 C 178.812 79.833,178.846 79.877,178.793 79.929 C 178.740 79.982,178.915 80.234,179.182 80.489 C 179.448 80.744,179.667 81.035,179.667 81.135 C 179.667 81.235,179.769 81.377,179.893 81.450 C 180.018 81.523,180.215 81.883,180.331 82.250 C 180.448 82.617,180.627 83.022,180.730 83.151 C 180.848 83.299,180.917 84.256,180.917 85.750 C 180.917 87.245,180.848 88.202,180.730 88.350 C 180.627 88.478,180.453 88.865,180.342 89.208 C 180.231 89.552,180.072 89.833,179.987 89.833 C 179.903 89.833,179.833 89.931,179.833 90.049 C 179.833 90.431,178.348 92.167,178.022 92.167 C 177.918 92.167,177.833 92.237,177.833 92.323 C 177.833 92.408,177.571 92.573,177.250 92.689 C 176.929 92.805,176.667 92.958,176.667 93.028 C 176.667 93.098,176.290 93.205,175.830 93.266 C 175.369 93.327,174.952 93.442,174.903 93.522 C 174.779 93.723,173.543 93.704,173.417 93.500 C 173.360 93.408,173.173 93.333,173.001 93.333 C 172.829 93.333,172.477 93.246,172.219 93.140 C 171.961 93.033,171.694 92.958,171.625 92.973 C 171.556 92.988,171.500 92.912,171.500 92.806 C 171.500 92.699,171.452 92.659,171.394 92.718 C 171.240 92.871,169.333 91.307,169.333 91.029 C 169.333 90.950,169.183 90.749,169.000 90.583 C 168.817 90.417,168.667 90.186,168.667 90.069 C 168.667 89.953,168.567 89.757,168.445 89.636 C 167.774 88.965,167.114 84.258,167.645 83.930 C 167.725 83.881,167.836 83.613,167.891 83.334 C 168.029 82.649,168.820 81.000,169.012 81.000 C 169.097 81.000,169.167 80.921,169.167 80.825 C 169.167 80.595,170.579 79.167,170.807 79.167 C 170.904 79.167,171.043 79.064,171.117 78.939 C 171.580 78.146,174.441 77.815,176.125 78.359 M224.914 78.495 C 225.279 78.580,225.604 78.728,225.636 78.825 C 225.668 78.921,225.792 79.000,225.910 79.000 C 226.145 79.000,227.333 80.368,227.333 80.639 C 227.333 80.731,227.405 80.831,227.492 80.861 C 228.043 81.054,228.036 85.667,227.485 85.667 C 227.402 85.667,227.333 85.766,227.333 85.888 C 227.333 86.009,227.148 86.283,226.922 86.495 C 226.695 86.708,226.540 86.930,226.576 86.989 C 226.613 87.048,226.404 87.200,226.113 87.326 C 225.822 87.453,225.530 87.638,225.465 87.737 C 225.335 87.934,219.591 88.101,218.899 87.927 L 218.500 87.827 218.500 83.174 L 218.500 78.520 219.125 78.455 C 220.413 78.320,224.275 78.347,224.914 78.495 M246.593 78.520 C 247.000 78.622,247.333 78.772,247.333 78.853 C 247.333 78.934,247.390 78.984,247.458 78.965 C 247.662 78.907,248.388 79.353,248.792 79.784 C 248.998 80.004,249.167 80.126,249.167 80.055 C 249.167 79.984,249.293 80.111,249.448 80.338 C 249.603 80.565,249.828 80.810,249.948 80.883 C 250.068 80.957,250.167 81.122,250.167 81.250 C 250.167 81.378,250.260 81.543,250.375 81.617 C 251.473 82.319,252.009 88.520,251.027 89.154 C 250.945 89.207,250.823 89.426,250.756 89.642 C 249.867 92.489,245.254 94.725,242.917 93.443 C 242.642 93.292,242.285 93.168,242.125 93.168 C 241.965 93.167,241.833 93.104,241.833 93.028 C 241.833 92.952,241.631 92.783,241.385 92.653 C 240.961 92.430,239.596 91.167,239.778 91.167 C 239.825 91.167,239.675 90.943,239.446 90.671 C 239.216 90.398,238.978 89.948,238.918 89.671 C 238.857 89.393,238.742 89.167,238.664 89.167 C 238.585 89.167,238.470 88.830,238.408 88.418 C 238.346 88.007,238.229 87.711,238.148 87.762 C 238.065 87.813,238.000 87.076,238.000 86.093 C 238.000 85.125,238.066 84.333,238.148 84.333 C 238.229 84.333,238.346 83.996,238.408 83.583 C 238.470 83.171,238.579 82.833,238.650 82.833 C 238.722 82.833,238.874 82.549,238.989 82.201 C 239.104 81.853,239.453 81.272,239.765 80.911 C 240.078 80.549,240.333 80.192,240.333 80.117 C 240.333 80.042,240.390 80.010,240.458 80.047 C 240.527 80.084,240.715 79.976,240.875 79.807 C 241.035 79.638,241.118 79.500,241.059 79.500 C 240.789 79.500,242.610 78.637,243.148 78.509 C 244.030 78.301,245.743 78.306,246.593 78.520 " stroke="none" fill="#242424" fill-rule="evenodd"></path><path id="path3" d="" stroke="none" fill="#205468" fill-rule="evenodd"></path><path id="path4" d="M282.048 85.917 C 282.049 86.375,282.081 86.543,282.120 86.289 C 282.158 86.036,282.157 85.661,282.117 85.456 C 282.078 85.251,282.046 85.458,282.048 85.917 " stroke="none" fill="#205824" fill-rule="evenodd"></path></g></svg>