<svg id="svg" version="1.1" xmlns="http://www.w3.org/2000/svg" xmlns:xlink="http://www.w3.org/1999/xlink" width="400" height="204.44888777805548" viewBox="0, 0, 400,204.44888777805548"><g id="svgg"><path id="path0" d="M188.621 16.287 C 188.917 16.324,189.442 16.324,189.788 16.288 C 190.134 16.252,189.892 16.222,189.250 16.221 C 188.608 16.221,188.325 16.250,188.621 16.287 M192.375 16.288 C 192.719 16.324,193.281 16.324,193.625 16.288 C 193.969 16.252,193.688 16.223,193.000 16.223 C 192.313 16.223,192.031 16.252,192.375 16.288 M206.208 16.782 C 206.369 16.823,206.631 16.823,206.792 16.782 C 206.952 16.740,206.821 16.705,206.500 16.705 C 206.179 16.705,206.048 16.740,206.208 16.782 M210.167 17.221 C 210.029 17.355,208.717 18.310,207.250 19.343 C 205.783 20.376,204.208 21.486,203.750 21.810 C 203.292 22.133,202.617 22.605,202.250 22.858 C 201.883 23.111,200.968 23.753,200.216 24.284 C 199.464 24.815,197.829 25.962,196.582 26.833 C 195.335 27.704,194.172 28.529,193.997 28.667 C 193.822 28.804,193.298 29.179,192.833 29.500 C 192.368 29.821,191.389 30.515,190.658 31.042 C 189.927 31.569,189.261 32.000,189.178 32.000 C 189.095 32.000,189.003 32.061,188.972 32.135 C 188.942 32.210,188.204 32.768,187.333 33.376 C 186.463 33.984,185.675 34.542,185.583 34.616 C 185.492 34.690,184.817 35.158,184.083 35.656 C 183.350 36.154,182.324 36.885,181.804 37.281 C 181.284 37.676,180.778 38.000,180.679 38.000 C 180.581 38.000,180.500 38.070,180.500 38.155 C 180.500 38.241,180.369 38.353,180.208 38.404 C 180.048 38.456,179.713 38.667,179.464 38.874 C 179.215 39.081,178.636 39.512,178.176 39.833 C 177.471 40.326,176.906 41.117,177.540 40.725 C 177.775 40.580,179.041 40.550,189.250 40.441 C 193.283 40.398,197.521 40.422,198.667 40.495 C 199.813 40.567,202.197 40.682,203.967 40.749 C 205.736 40.817,207.152 40.903,207.114 40.941 C 207.076 40.979,206.304 41.083,205.398 41.171 C 204.491 41.260,202.813 41.441,201.667 41.574 C 198.632 41.926,196.567 42.212,191.417 42.996 C 190.775 43.094,189.425 43.329,188.417 43.520 C 187.408 43.710,186.396 43.900,186.167 43.942 C 184.905 44.174,181.592 44.852,180.583 45.086 C 179.942 45.235,179.117 45.424,178.750 45.506 C 178.383 45.588,177.915 45.695,177.708 45.744 C 177.502 45.793,177.202 45.864,177.042 45.901 C 175.408 46.277,173.641 46.698,173.167 46.824 C 172.228 47.073,170.119 47.687,169.667 47.843 C 169.438 47.922,168.968 48.036,168.623 48.095 C 168.278 48.155,167.957 48.268,167.909 48.345 C 167.862 48.422,167.700 48.438,167.551 48.381 C 167.354 48.306,167.317 48.338,167.415 48.497 C 167.499 48.633,167.487 48.678,167.384 48.614 C 167.209 48.506,166.637 48.665,165.298 49.194 C 164.866 49.365,164.453 49.494,164.381 49.482 C 164.079 49.432,163.836 49.510,163.875 49.644 C 163.922 49.804,162.103 51.183,159.583 52.899 C 157.720 54.167,157.333 54.561,157.357 55.167 C 157.372 55.550,157.383 55.544,157.500 55.083 L 157.627 54.583 157.647 55.032 C 157.658 55.279,157.600 55.522,157.518 55.572 C 156.935 55.932,160.650 61.898,164.232 66.354 C 164.425 66.595,164.733 67.001,164.917 67.257 C 166.022 68.799,171.404 75.609,171.827 76.000 C 171.876 76.046,172.514 76.796,173.244 77.667 C 174.364 79.002,176.719 81.719,177.000 82.000 C 177.046 82.046,177.721 82.795,178.500 83.666 C 183.529 89.283,191.388 96.910,190.931 95.731 C 190.823 95.451,190.643 94.860,189.720 91.750 C 189.448 90.835,189.281 90.224,188.491 87.250 C 187.978 85.320,187.872 84.888,187.250 82.167 C 187.093 81.479,186.861 80.467,186.735 79.917 C 185.991 76.669,184.841 70.663,184.346 67.438 L 184.221 66.627 184.819 66.389 C 185.148 66.259,185.567 66.083,185.750 65.998 C 186.364 65.715,193.531 63.249,195.958 62.485 C 196.806 62.218,198.231 61.768,199.125 61.484 C 200.019 61.201,201.125 60.869,201.583 60.748 C 202.042 60.627,202.829 60.406,203.333 60.258 C 203.838 60.110,204.963 59.797,205.833 59.564 C 206.704 59.330,207.979 58.988,208.667 58.803 C 209.842 58.487,210.453 58.333,212.792 57.769 C 215.485 57.118,219.688 56.241,222.083 55.829 C 224.261 55.455,225.110 54.879,226.420 52.890 C 227.549 51.176,232.858 42.371,233.740 40.750 C 234.089 40.108,234.432 39.508,234.502 39.417 C 234.572 39.325,235.248 38.125,236.004 36.750 C 236.761 35.375,237.561 33.922,237.782 33.520 C 238.003 33.119,238.911 31.394,239.800 29.687 L 241.417 26.583 241.414 25.250 C 241.409 22.922,240.237 21.484,237.833 20.856 C 236.528 20.515,231.579 19.619,228.083 19.090 C 227.258 18.966,226.058 18.781,225.417 18.679 C 223.361 18.354,222.106 18.178,221.167 18.082 C 220.662 18.031,219.725 17.918,219.083 17.833 C 218.442 17.747,217.429 17.635,216.833 17.585 C 216.237 17.535,215.349 17.448,214.858 17.392 C 214.368 17.337,213.468 17.264,212.858 17.231 C 212.249 17.197,211.450 17.127,211.083 17.074 C 210.618 17.007,210.341 17.051,210.167 17.221 " stroke="none" fill="#1bc49c" fill-rule="evenodd"></path><path id="path1" d="M183.417 16.368 C 178.854 16.531,173.172 16.811,172.667 16.898 C 172.438 16.938,171.425 17.015,170.417 17.071 C 169.408 17.126,167.946 17.244,167.167 17.332 C 166.387 17.421,164.925 17.576,163.917 17.677 C 158.520 18.220,151.210 19.248,146.833 20.080 C 146.054 20.228,144.994 20.421,144.477 20.508 C 141.659 20.987,140.063 22.830,140.197 25.455 C 140.276 26.998,141.333 29.263,146.129 38.167 C 146.500 38.854,147.053 39.892,147.360 40.474 C 148.947 43.487,150.508 44.059,155.000 43.273 C 156.909 42.939,159.438 42.557,161.250 42.328 C 161.983 42.235,162.808 42.125,163.083 42.084 C 163.639 41.999,165.961 41.713,167.250 41.571 C 167.708 41.520,168.271 41.451,168.500 41.418 C 168.729 41.385,169.629 41.305,170.500 41.241 C 171.371 41.176,172.421 41.091,172.833 41.051 C 173.246 41.012,174.296 40.940,175.167 40.891 C 176.037 40.843,176.858 40.716,176.990 40.610 C 177.176 40.460,177.202 40.464,177.105 40.625 C 177.037 40.740,177.060 40.833,177.157 40.833 C 177.254 40.833,177.335 40.740,177.337 40.625 C 177.339 40.510,177.717 40.154,178.176 39.833 C 178.636 39.512,179.215 39.081,179.464 38.874 C 179.713 38.667,180.048 38.456,180.208 38.404 C 180.369 38.353,180.500 38.241,180.500 38.155 C 180.500 38.070,180.581 38.000,180.679 38.000 C 180.778 38.000,181.284 37.676,181.804 37.281 C 182.324 36.885,183.350 36.154,184.083 35.656 C 184.817 35.158,185.492 34.690,185.583 34.616 C 185.675 34.542,186.463 33.984,187.333 33.376 C 188.204 32.768,188.942 32.210,188.972 32.135 C 189.003 32.061,189.095 32.000,189.178 32.000 C 189.261 32.000,189.927 31.569,190.658 31.042 C 191.389 30.515,192.368 29.821,192.833 29.500 C 193.298 29.179,193.822 28.804,193.997 28.667 C 194.172 28.529,195.335 27.704,196.582 26.833 C 197.829 25.962,199.464 24.815,200.216 24.284 C 200.968 23.753,201.883 23.111,202.250 22.858 C 202.617 22.605,203.292 22.133,203.750 21.810 C 204.208 21.486,205.783 20.376,207.250 19.343 C 210.416 17.113,210.642 16.916,209.881 17.057 C 209.587 17.111,209.301 17.083,209.247 16.995 C 209.192 16.906,208.997 16.833,208.814 16.833 C 208.591 16.833,208.522 16.903,208.605 17.042 C 208.683 17.171,208.618 17.158,208.435 17.010 C 208.232 16.845,207.656 16.760,206.611 16.739 C 205.771 16.722,204.521 16.664,203.833 16.610 C 199.814 16.292,189.120 16.165,183.417 16.368 M164.750 49.256 C 164.333 49.457,164.319 49.480,164.667 49.395 C 165.139 49.279,165.670 49.009,165.417 49.013 C 165.325 49.014,165.025 49.123,164.750 49.256 M163.457 49.687 C 163.297 49.777,163.167 49.806,163.167 49.752 C 163.167 49.699,162.998 49.749,162.792 49.863 C 162.374 50.095,162.304 50.116,161.845 50.146 C 161.668 50.157,161.425 50.260,161.304 50.375 C 161.182 50.490,160.901 50.609,160.679 50.640 C 159.949 50.744,158.398 52.034,158.604 52.367 C 158.648 52.438,158.555 52.447,158.398 52.386 C 158.218 52.317,158.152 52.342,158.221 52.453 C 158.281 52.550,158.219 52.721,158.083 52.834 C 157.664 53.182,157.153 55.798,157.552 55.551 C 157.627 55.505,157.676 55.268,157.660 55.025 C 157.644 54.782,157.639 54.500,157.649 54.397 C 157.659 54.295,158.473 53.661,159.458 52.989 C 161.716 51.449,163.733 49.959,163.806 49.778 C 163.897 49.549,163.765 49.515,163.457 49.687 " stroke="none" fill="#26dfa4" fill-rule="evenodd"></path><path id="path2" d="M65.039 109.792 C 65.179 111.656,66.184 113.329,67.879 114.519 C 69.656 115.765,70.100 115.831,76.791 115.832 L 82.665 115.833 82.707 131.542 L 82.750 147.250 87.708 147.294 L 92.667 147.338 92.667 131.586 L 92.667 115.833 101.583 115.833 L 110.500 115.833 110.498 115.208 C 110.490 112.290,107.802 109.332,104.696 108.824 C 104.152 108.734,95.511 108.668,84.353 108.668 L 64.955 108.667 65.039 109.792 M127.834 124.125 C 127.835 133.141,127.902 139.988,127.994 140.554 C 128.290 142.362,129.616 144.521,131.047 145.524 C 131.485 145.832,131.948 146.177,132.077 146.292 C 132.205 146.406,132.371 146.500,132.446 146.501 C 132.522 146.502,132.784 146.607,133.029 146.734 C 134.108 147.298,135.097 147.333,149.675 147.333 L 164.167 147.333 164.164 146.625 C 164.157 144.368,162.173 141.438,159.978 140.440 C 158.287 139.672,158.233 139.669,147.542 139.668 L 137.333 139.667 137.333 135.333 L 137.333 131.000 143.018 131.000 C 149.266 131.000,149.959 130.919,151.616 129.992 C 153.607 128.878,155.167 126.455,155.167 124.474 L 155.167 123.833 146.250 123.833 L 137.333 123.833 137.333 119.833 L 137.333 115.833 148.750 115.833 C 155.029 115.833,160.167 115.798,160.167 115.756 C 160.167 115.642,159.403 114.271,158.479 112.727 C 158.032 111.981,157.667 111.327,157.667 111.274 C 157.667 111.222,157.324 110.613,156.904 109.923 L 156.142 108.667 141.988 108.667 L 127.833 108.667 127.834 124.125 M158.333 108.747 C 158.333 108.792,158.546 109.186,158.805 109.622 C 159.065 110.059,159.900 111.504,160.660 112.833 C 161.421 114.162,162.721 116.412,163.548 117.833 C 165.893 121.857,166.758 123.355,167.205 124.167 C 167.432 124.579,168.291 126.079,169.113 127.500 C 173.713 135.449,174.030 135.999,174.852 137.458 C 175.192 138.061,175.761 139.039,176.380 140.083 C 176.542 140.358,176.720 140.715,176.774 140.875 C 176.828 141.035,176.938 141.167,177.019 141.167 C 177.100 141.167,177.167 141.246,177.167 141.343 C 177.167 141.439,177.598 142.244,178.125 143.132 C 178.652 144.019,179.112 144.821,179.148 144.914 C 179.184 145.007,179.511 145.590,179.875 146.208 L 180.538 147.333 184.314 147.333 L 188.090 147.333 188.503 146.547 C 188.731 146.115,189.348 145.036,189.875 144.150 C 190.402 143.263,190.833 142.455,190.833 142.352 C 190.833 142.250,190.900 142.167,190.981 142.167 C 191.062 142.167,191.171 142.035,191.223 141.875 C 191.276 141.715,191.519 141.246,191.763 140.833 C 192.008 140.421,192.922 138.846,193.795 137.333 C 194.669 135.821,195.564 134.296,195.785 133.946 C 196.006 133.595,196.238 133.182,196.302 133.028 C 196.365 132.873,196.848 132.021,197.375 131.133 C 197.902 130.245,198.333 129.439,198.333 129.343 C 198.333 129.246,198.408 129.167,198.500 129.167 C 198.592 129.167,198.667 129.095,198.667 129.007 C 198.667 128.919,199.267 127.828,200.000 126.583 C 200.733 125.339,201.333 124.293,201.333 124.259 C 201.333 124.225,201.783 123.440,202.333 122.514 C 202.883 121.587,203.333 120.755,203.333 120.665 C 203.333 120.574,203.408 120.500,203.500 120.500 C 203.592 120.500,203.667 120.416,203.667 120.314 C 203.667 120.212,204.117 119.384,204.667 118.473 C 205.217 117.563,205.667 116.787,205.667 116.750 C 205.667 116.688,207.216 114.003,209.352 110.362 C 210.460 108.474,210.634 108.603,207.125 108.711 C 201.987 108.869,198.032 110.854,196.417 114.083 C 196.233 114.450,196.027 114.775,195.958 114.806 C 195.890 114.836,195.833 114.930,195.833 115.013 C 195.833 115.097,195.447 115.860,194.974 116.708 C 194.502 117.556,193.784 118.880,193.379 119.651 C 192.975 120.421,192.311 121.638,191.905 122.353 C 191.499 123.069,191.167 123.686,191.167 123.723 C 191.167 123.760,190.768 124.494,190.281 125.354 C 189.794 126.214,189.016 127.630,188.552 128.501 C 188.088 129.371,187.520 130.421,187.291 130.833 C 185.673 133.745,185.167 134.678,185.167 134.754 C 185.167 134.801,184.973 135.147,184.737 135.521 C 184.237 136.313,184.286 136.349,183.245 134.417 C 182.899 133.775,182.390 132.837,182.114 132.333 C 181.838 131.829,181.499 131.192,181.361 130.917 C 181.223 130.642,181.066 130.379,181.013 130.333 C 180.960 130.287,180.684 129.800,180.399 129.250 C 180.115 128.700,179.596 127.725,179.248 127.083 C 178.355 125.441,177.993 124.772,177.174 123.250 C 176.780 122.517,176.290 121.617,176.085 121.250 C 175.184 119.638,174.582 118.527,174.100 117.590 C 173.816 117.036,173.527 116.558,173.458 116.528 C 173.390 116.497,173.333 116.406,173.333 116.325 C 173.333 116.197,171.256 112.296,170.320 110.667 C 170.136 110.346,169.824 109.765,169.626 109.375 L 169.267 108.667 163.800 108.667 C 160.793 108.667,158.333 108.703,158.333 108.747 M211.852 109.821 C 211.475 110.456,211.167 111.011,211.167 111.055 C 211.167 111.099,210.717 111.894,210.167 112.820 C 209.617 113.746,209.167 114.572,209.167 114.655 C 209.167 114.738,209.073 114.837,208.958 114.875 C 208.522 115.020,208.578 140.185,209.017 141.500 C 209.982 144.388,212.444 146.650,215.187 147.171 C 215.704 147.269,221.809 147.333,230.544 147.333 L 245.043 147.333 244.929 146.324 C 244.604 143.451,242.512 140.905,239.742 140.010 C 238.717 139.679,238.323 139.667,228.423 139.667 L 218.167 139.667 218.167 135.333 L 218.167 131.000 223.740 131.000 C 229.566 131.000,230.649 130.897,232.009 130.214 C 234.213 129.108,235.627 127.130,235.926 124.734 L 236.038 123.833 227.103 123.833 L 218.167 123.833 218.167 119.833 L 218.167 115.833 228.641 115.833 C 239.985 115.833,239.686 115.855,241.504 114.914 C 243.134 114.072,244.743 111.634,244.940 109.708 L 245.047 108.667 228.793 108.667 L 212.538 108.667 211.852 109.821 M247.167 127.993 L 247.167 147.333 247.803 147.333 C 251.354 147.333,254.698 144.835,256.166 141.083 C 256.634 139.888,256.667 139.006,256.667 127.601 L 256.667 115.823 266.625 115.870 C 277.968 115.923,277.355 115.847,278.915 117.406 C 281.703 120.194,280.434 124.919,276.604 126.018 C 276.334 126.095,273.782 126.164,270.932 126.170 C 264.945 126.184,264.396 126.268,262.634 127.438 C 260.880 128.604,259.850 130.277,259.593 132.375 L 259.476 133.333 262.115 133.333 L 264.754 133.333 265.919 134.437 C 266.559 135.044,267.983 136.375,269.082 137.395 C 270.181 138.415,271.277 139.438,271.517 139.667 C 272.106 140.228,274.946 142.844,275.669 143.491 C 276.403 144.147,278.309 145.436,278.850 145.641 C 279.076 145.727,279.596 145.951,280.005 146.138 C 282.216 147.148,282.712 147.218,288.208 147.294 C 291.858 147.345,293.333 147.313,293.333 147.183 C 293.333 147.082,293.276 147.000,293.207 147.000 C 293.137 147.000,292.893 146.831,292.663 146.625 C 292.434 146.419,291.873 145.950,291.415 145.584 C 290.958 145.217,290.433 144.792,290.250 144.639 C 289.835 144.293,288.627 143.309,287.761 142.612 C 287.400 142.321,286.838 141.854,286.511 141.574 C 286.184 141.294,285.692 140.894,285.417 140.685 C 285.142 140.477,284.654 140.069,284.332 139.778 C 283.837 139.331,283.074 138.703,281.833 137.719 C 281.620 137.550,279.685 135.943,278.577 135.015 C 278.390 134.858,277.839 134.416,277.353 134.032 L 276.470 133.333 277.443 133.330 C 281.594 133.316,285.514 131.370,287.607 128.284 C 287.869 127.899,288.129 127.546,288.187 127.500 C 288.383 127.344,289.292 125.253,289.600 124.250 C 290.445 121.500,289.616 116.108,288.085 114.395 C 287.992 114.292,287.806 114.030,287.671 113.812 C 287.235 113.112,284.911 110.927,284.237 110.583 C 283.878 110.400,283.558 110.194,283.528 110.125 C 283.497 110.056,283.399 110.000,283.310 110.000 C 283.221 110.000,282.820 109.850,282.418 109.667 C 280.351 108.726,281.126 108.765,263.458 108.707 L 247.167 108.653 247.167 127.993 M286.004 108.792 C 286.007 108.860,286.503 109.442,287.108 110.083 C 287.713 110.725,289.078 112.188,290.141 113.333 C 291.203 114.479,292.300 115.646,292.578 115.927 C 292.856 116.207,293.487 116.882,293.981 117.427 C 294.475 117.971,295.413 118.980,296.065 119.670 C 299.357 123.150,303.865 127.958,305.219 129.434 L 306.000 130.285 306.000 138.833 L 306.000 147.382 307.125 147.286 C 310.128 147.031,313.039 144.966,314.225 142.250 C 314.385 141.883,314.586 141.455,314.672 141.298 C 314.977 140.740,315.164 138.027,315.169 134.083 L 315.173 130.083 316.605 128.583 C 317.393 127.758,318.685 126.381,319.477 125.523 C 320.269 124.665,321.254 123.609,321.667 123.177 C 322.759 122.032,326.541 118.001,327.070 117.417 C 327.320 117.142,327.987 116.426,328.554 115.825 C 329.712 114.597,333.472 110.592,334.395 109.602 C 335.274 108.659,335.295 108.666,331.708 108.670 C 324.668 108.677,323.598 109.191,318.167 115.173 C 317.387 116.032,316.563 116.930,316.333 117.170 C 316.104 117.411,315.118 118.464,314.143 119.512 C 313.167 120.560,311.949 121.867,311.436 122.417 L 310.503 123.417 309.904 122.750 C 309.575 122.383,308.565 121.293,307.661 120.327 C 306.756 119.360,305.881 118.414,305.716 118.224 C 305.459 117.927,304.566 116.969,300.941 113.102 C 300.588 112.725,299.846 111.929,299.293 111.333 C 298.739 110.737,297.952 109.894,297.544 109.458 L 296.801 108.667 291.401 108.667 C 288.430 108.667,286.002 108.723,286.004 108.792 M101.333 124.135 C 101.333 127.138,103.699 129.987,106.819 130.744 C 107.737 130.966,108.856 131.002,113.667 130.963 L 119.417 130.917 119.441 130.500 C 119.567 128.317,117.773 125.638,115.412 124.485 L 114.250 123.917 107.792 123.866 C 101.519 123.817,101.333 123.825,101.333 124.135 M113.833 153.008 C 113.329 153.095,112.767 153.234,112.583 153.316 C 112.400 153.398,111.837 153.631,111.333 153.834 C 105.184 156.305,101.796 165.942,104.948 172.000 C 105.067 172.229,105.165 172.479,105.166 172.554 C 105.166 172.630,105.513 173.230,105.936 173.887 C 112.786 184.541,128.242 179.671,128.625 166.738 C 128.890 157.782,122.191 151.564,113.833 153.008 M193.461 152.994 C 184.208 154.684,180.132 167.248,186.326 174.988 C 187.440 176.380,189.052 177.833,189.482 177.833 C 189.584 177.833,189.668 177.890,189.669 177.958 C 189.670 178.077,190.173 178.333,191.500 178.891 C 195.792 180.697,202.005 179.182,204.830 175.641 C 205.148 175.243,205.467 174.842,205.540 174.750 C 205.613 174.658,205.821 174.403,206.003 174.183 C 206.185 173.963,206.333 173.688,206.333 173.572 C 206.333 173.456,206.390 173.336,206.458 173.306 C 206.583 173.250,206.913 172.612,207.394 171.500 C 208.712 168.453,208.566 163.382,207.070 160.201 C 206.026 157.980,202.950 154.500,202.032 154.500 C 201.938 154.500,201.836 154.444,201.806 154.375 C 201.719 154.181,200.349 153.559,199.333 153.252 C 198.272 152.931,194.672 152.773,193.461 152.994 M91.000 153.116 C 81.727 154.680,78.403 169.359,85.697 176.532 C 89.705 180.474,97.209 180.516,101.333 176.619 C 102.066 175.927,102.833 175.017,102.833 174.839 C 102.833 174.701,101.698 172.983,101.507 172.833 C 101.448 172.787,101.230 172.506,101.022 172.208 C 100.543 171.523,100.401 171.531,99.579 172.294 C 94.656 176.866,88.778 175.530,86.908 169.414 C 86.523 168.154,86.466 164.508,86.812 163.250 C 88.472 157.215,94.467 155.459,98.916 159.705 C 100.205 160.935,100.455 160.935,101.297 159.700 C 102.848 157.428,102.859 157.146,101.457 155.772 C 99.131 153.495,94.990 152.443,91.000 153.116 M132.967 153.384 C 131.380 153.589,131.500 153.084,131.724 158.593 C 131.963 164.486,131.962 168.571,131.719 174.250 C 131.613 176.725,131.590 178.815,131.667 178.895 C 131.910 179.147,136.180 179.081,136.340 178.823 C 136.416 178.700,136.436 175.333,136.385 171.341 C 136.326 166.782,136.350 164.145,136.449 164.250 C 136.536 164.342,137.009 165.354,137.501 166.500 C 137.992 167.646,138.643 169.127,138.947 169.792 C 139.251 170.457,139.500 171.036,139.500 171.079 C 139.500 171.122,139.688 171.567,139.917 172.068 C 140.146 172.569,140.333 173.024,140.333 173.080 C 140.333 173.135,140.547 173.646,140.807 174.215 C 141.068 174.784,141.602 176.037,141.996 177.000 C 142.919 179.260,143.005 179.333,144.765 179.333 L 146.160 179.333 146.473 178.708 C 146.646 178.365,147.030 177.408,147.327 176.583 C 147.625 175.758,147.933 174.933,148.011 174.750 C 148.090 174.567,148.424 173.742,148.752 172.917 C 149.081 172.092,149.417 171.267,149.499 171.083 C 149.582 170.900,149.812 170.337,150.011 169.833 C 150.210 169.329,150.551 168.521,150.770 168.037 C 150.988 167.553,151.167 167.118,151.167 167.070 C 151.167 166.988,151.517 166.167,152.103 164.875 C 152.507 163.986,152.533 164.196,152.435 167.458 C 152.040 180.552,151.704 179.005,154.928 178.954 L 157.250 178.917 157.217 177.583 C 157.199 176.850,157.171 171.142,157.155 164.898 L 157.126 153.546 155.771 153.441 C 152.614 153.195,152.588 153.203,152.090 154.583 C 151.924 155.042,151.657 155.717,151.497 156.083 C 151.336 156.450,150.789 157.875,150.281 159.250 C 149.398 161.641,146.220 169.703,145.749 170.750 C 145.625 171.026,145.366 171.619,145.172 172.070 C 144.775 172.998,144.694 172.956,144.087 171.500 C 143.014 168.927,143.136 169.211,142.344 167.447 C 142.063 166.822,141.833 166.275,141.833 166.231 C 141.833 166.188,141.608 165.672,141.333 165.083 C 141.058 164.495,140.833 163.962,140.833 163.899 C 140.833 163.836,140.571 163.239,140.250 162.572 C 139.929 161.905,139.667 161.321,139.667 161.275 C 139.667 161.186,138.922 159.503,138.254 158.083 C 138.039 157.625,137.748 156.987,137.607 156.667 C 137.467 156.346,137.053 155.427,136.687 154.625 L 136.022 153.167 135.136 153.192 C 134.649 153.207,133.672 153.293,132.967 153.384 M214.609 153.280 C 214.547 153.342,213.766 153.436,212.873 153.488 L 211.250 153.583 211.333 157.917 C 211.455 164.221,211.436 169.135,211.271 174.373 L 211.126 178.996 213.521 178.956 L 215.917 178.917 215.850 170.042 C 215.810 164.824,215.844 161.168,215.933 161.170 C 216.016 161.172,216.562 161.809,217.147 162.586 C 217.731 163.363,218.331 164.147,218.480 164.329 C 218.628 164.511,219.012 165.018,219.332 165.455 C 219.653 165.892,219.956 166.287,220.007 166.333 C 220.058 166.379,220.281 166.679,220.504 167.000 C 220.726 167.321,221.039 167.727,221.200 167.903 C 221.361 168.078,221.701 168.528,221.954 168.903 C 222.208 169.277,222.459 169.621,222.513 169.667 C 222.566 169.712,224.095 171.737,225.911 174.167 C 229.912 179.519,229.267 178.988,231.774 178.988 C 233.261 178.988,233.842 178.932,233.865 178.786 C 233.882 178.674,233.901 175.058,233.906 170.750 C 233.912 166.442,233.985 160.798,234.068 158.208 L 234.220 153.500 231.786 153.500 C 230.287 153.500,229.312 153.566,229.246 153.673 C 229.187 153.768,229.227 157.124,229.334 161.131 C 229.441 165.138,229.504 169.106,229.473 169.949 L 229.417 171.480 228.103 169.740 C 227.380 168.783,226.667 167.851,226.519 167.670 C 226.371 167.488,225.987 166.982,225.667 166.545 C 225.346 166.108,224.954 165.606,224.795 165.431 C 224.637 165.255,224.299 164.805,224.046 164.431 C 223.792 164.056,223.541 163.712,223.487 163.667 C 223.434 163.621,222.441 162.308,221.282 160.750 C 220.122 159.192,219.106 157.836,219.024 157.738 C 218.942 157.639,218.585 157.151,218.232 156.654 C 217.878 156.157,217.513 155.665,217.420 155.562 C 217.326 155.459,217.137 155.206,217.000 155.001 C 215.856 153.295,215.122 152.767,214.609 153.280 M261.000 153.333 C 260.771 153.407,260.058 153.475,259.417 153.486 C 257.666 153.515,257.763 153.253,258.002 157.272 C 258.201 160.641,258.154 169.526,257.900 176.290 L 257.798 178.996 260.191 178.956 L 262.583 178.917 262.539 169.917 L 262.495 160.917 262.911 161.417 C 263.140 161.692,263.388 161.992,263.462 162.083 C 263.844 162.553,269.282 169.760,272.365 173.883 C 274.298 176.468,275.991 178.674,276.128 178.784 C 276.471 179.062,280.487 179.060,280.533 178.782 C 280.552 178.673,280.570 175.133,280.575 170.917 C 280.580 166.700,280.652 161.054,280.735 158.370 L 280.887 153.491 278.402 153.537 L 275.917 153.583 275.922 155.667 C 275.925 156.813,275.986 160.825,276.058 164.583 L 276.189 171.417 275.720 170.904 C 275.038 170.159,274.643 169.664,274.122 168.899 C 273.868 168.527,273.530 168.078,273.372 167.903 C 273.213 167.727,272.878 167.283,272.628 166.917 C 272.377 166.550,271.945 165.987,271.667 165.667 C 271.389 165.346,270.956 164.783,270.705 164.417 C 270.455 164.050,270.120 163.606,269.962 163.431 C 269.803 163.255,269.466 162.805,269.212 162.431 C 268.958 162.056,268.620 161.606,268.462 161.431 C 268.303 161.255,267.966 160.805,267.712 160.431 C 267.458 160.056,267.156 159.651,267.041 159.529 C 266.926 159.408,266.592 158.958,266.299 158.529 C 266.006 158.101,265.687 157.658,265.591 157.546 C 265.495 157.434,265.206 157.059,264.949 156.713 C 261.994 152.738,262.230 152.939,261.000 153.333 M283.708 153.303 C 283.594 153.377,283.429 153.999,283.341 154.686 C 283.254 155.373,283.104 156.142,283.008 156.395 C 282.550 157.601,282.419 157.560,286.417 157.457 L 290.000 157.364 290.031 159.890 C 290.048 161.280,290.031 164.892,289.994 167.917 C 289.956 170.942,289.923 174.654,289.921 176.167 L 289.917 178.917 292.381 178.955 C 294.438 178.988,294.862 178.953,294.941 178.745 C 294.994 178.609,294.950 175.601,294.843 172.061 C 294.732 168.365,294.700 163.854,294.767 161.464 L 294.885 157.303 298.198 157.421 L 301.510 157.539 301.463 155.395 L 301.417 153.250 300.750 153.268 C 300.383 153.279,298.419 153.385,296.384 153.505 C 292.899 153.711,284.948 153.550,284.155 153.258 C 284.024 153.210,283.823 153.230,283.708 153.303 M166.417 153.497 L 160.917 153.583 160.935 154.333 C 160.944 154.746,161.049 157.258,161.167 159.917 C 161.340 163.816,161.341 166.093,161.175 171.699 C 161.061 175.520,161.017 178.726,161.077 178.823 C 161.140 178.925,161.891 179.004,162.884 179.012 C 163.819 179.020,164.921 179.039,165.333 179.055 L 166.083 179.083 166.083 175.750 L 166.083 172.417 170.833 172.323 C 174.967 172.242,175.681 172.189,176.333 171.917 C 183.415 168.961,183.589 157.524,176.602 154.253 C 175.459 153.718,173.058 153.242,172.167 153.373 C 172.029 153.393,169.442 153.449,166.417 153.497 M309.370 153.511 C 305.942 154.186,303.924 156.806,303.919 160.583 C 303.915 164.239,305.041 165.586,310.403 168.334 C 312.687 169.505,313.181 172.169,311.388 173.647 C 310.470 174.403,309.183 174.667,306.402 174.667 L 303.965 174.667 304.056 175.292 C 304.233 176.515,304.842 179.075,304.990 179.224 C 305.322 179.555,310.172 179.231,311.349 178.799 C 315.288 177.353,317.333 174.646,317.333 170.879 C 317.333 167.541,316.420 166.329,312.288 164.190 C 308.620 162.291,307.833 161.256,308.600 159.340 C 309.215 157.802,311.485 157.405,314.167 158.366 C 316.629 159.248,316.443 159.316,317.458 157.178 C 317.940 156.165,318.333 155.269,318.333 155.188 C 318.333 154.997,316.825 154.270,315.750 153.942 C 313.871 153.368,311.057 153.178,309.370 153.511 M237.935 156.623 C 238.086 159.811,238.109 168.187,237.986 175.083 L 237.917 178.917 243.250 178.865 C 247.119 178.828,249.347 178.885,251.365 179.072 C 252.894 179.215,254.254 179.289,254.386 179.239 C 254.643 179.140,255.024 177.081,255.062 175.585 L 255.083 174.754 253.833 174.807 C 253.146 174.836,252.058 174.927,251.417 175.008 C 248.927 175.324,243.633 175.197,243.167 174.809 C 242.672 174.398,242.401 168.605,242.851 168.063 C 243.033 167.843,243.794 167.814,248.446 167.850 C 251.408 167.872,253.870 167.852,253.917 167.806 C 254.225 167.497,254.069 163.585,253.750 163.621 C 252.031 163.815,243.147 163.858,242.924 163.673 C 242.627 163.427,242.540 158.687,242.819 157.954 C 243.158 157.064,243.218 157.060,252.116 157.441 L 254.483 157.543 254.585 157.136 C 254.641 156.913,254.645 156.435,254.594 156.073 C 254.543 155.712,254.445 155.004,254.376 154.500 L 254.250 153.583 246.018 153.540 L 237.786 153.497 237.935 156.623 M173.059 157.416 C 177.717 158.829,178.408 166.344,174.058 168.268 C 173.062 168.709,166.886 168.885,166.156 168.494 C 165.813 168.311,165.633 157.810,165.969 157.602 C 166.044 157.556,166.775 157.467,167.594 157.405 C 168.413 157.342,169.115 157.263,169.153 157.229 C 169.345 157.057,172.350 157.201,173.059 157.416 M118.000 157.512 C 123.158 158.685,125.871 166.040,122.944 170.917 C 120.151 175.568,114.749 176.574,111.269 173.091 C 105.043 166.858,109.879 155.665,118.000 157.512 M197.750 157.538 C 203.046 159.185,205.416 166.071,202.412 171.085 C 197.786 178.805,187.443 174.720,188.054 165.415 C 188.405 160.067,193.243 156.136,197.750 157.538 " stroke="none" fill="#242424" fill-rule="evenodd"></path><path id="path3" d="" stroke="none" fill="#205468" fill-rule="evenodd"></path><path id="path4" d="" stroke="none" fill="#205824" fill-rule="evenodd"></path></g></svg>